<svg width="47" height="47" viewBox="0 0 47 47" fill="none" xmlns="http://www.w3.org/2000/svg">
<rect x="10" y="9" width="4" height="4" rx="1" fill="#131313"/>
<rect x="10" y="20" width="4" height="4" rx="1" fill="#131313"/>
<rect x="10" y="31" width="4" height="4" rx="1" fill="#131313"/>
<rect x="21" y="9" width="4" height="4" rx="1" fill="#131313"/>
<path d="M21 21C21 20.4477 21.4477 20 22 20H24C24.5523 20 25 20.4477 25 21V23C25 23.5523 24.5523 24 24 24H22C21.4477 24 21 23.5523 21 23V21Z" fill="#131313"/>
<rect x="21" y="31" width="4" height="4" rx="1" fill="#131313"/>
<rect x="32" y="9" width="4" height="4" rx="1" fill="#131313"/>
<rect x="32" y="20" width="4" height="4" rx="1" fill="#131313"/>
<rect x="32" y="31" width="4" height="4" rx="1" fill="#131313"/>
</svg>
