<svg width="20" height="20" viewBox="0 0 20 20" fill="none" xmlns="http://www.w3.org/2000/svg">
<g clip-path="url(#clip0_68_10306)">
<path d="M8.4616 0.769287C6.9402 0.769287 5.45297 1.22043 4.18798 2.06567C2.92299 2.91092 1.93704 4.11229 1.35483 5.51787C0.77262 6.92346 0.620287 8.47013 0.917096 9.96229C1.21391 11.4544 1.94653 12.8251 3.02232 13.9009C4.0981 14.9767 5.46874 15.7093 6.9609 16.0061C8.45306 16.3029 9.99973 16.1506 11.4053 15.5684C12.8109 14.9861 14.0123 14.0002 14.8575 12.7352C15.7028 11.4702 16.1539 9.98299 16.1539 8.46159C16.1538 6.42151 15.3433 4.46501 13.9007 3.02245C12.4582 1.5799 10.5017 0.769417 8.4616 0.769287Z" stroke="#131313" stroke-width="1.75" stroke-miterlimit="10"/>
<path d="M13.8462 13.8462L19.2308 19.2308" stroke="#131313" stroke-width="1.75" stroke-miterlimit="10" stroke-linecap="round"/>
</g>
<defs>
<clipPath id="clip0_68_10306">
<rect width="20" height="20" fill="white"/>
</clipPath>
</defs>
</svg>
