<svg width="30" height="30" viewBox="0 0 30 30" fill="none" xmlns="http://www.w3.org/2000/svg">
<path d="M20.775 26.2625C20.1625 26.875 19.175 26.875 18.5625 26.2625L8.17501 15.875C8.05913 15.7594 7.9672 15.622 7.90447 15.4708C7.84175 15.3196 7.80946 15.1575 7.80946 14.9937C7.80946 14.83 7.84175 14.6679 7.90447 14.5167C7.9672 14.3655 8.05913 14.2281 8.17501 14.1125L18.5625 3.725C19.175 3.1125 20.1625 3.1125 20.775 3.725C21.3875 4.3375 21.3875 5.325 20.775 5.9375L11.725 15L20.7875 24.0625C21.3875 24.6625 21.3875 25.6625 20.775 26.2625Z" fill="#2F2F2F"/>
</svg>
