<svg width="16" height="16" viewBox="0 0 16 16" fill="none" xmlns="http://www.w3.org/2000/svg">
<path fill-rule="evenodd" clip-rule="evenodd" d="M5.25109 1.37325C5.9622 1.34066 6.18961 1.33325 7.99998 1.33325C9.81035 1.33325 10.0378 1.34066 10.7489 1.37325C11.4585 1.40584 11.9429 1.51844 12.3666 1.68288C12.8052 1.85325 13.177 2.0814 13.5474 2.45251C13.9185 2.82288 14.1466 3.19473 14.317 3.63325C14.4815 4.05696 14.5941 4.5414 14.6266 5.25103C14.6592 5.96214 14.6666 6.18955 14.6666 7.99992C14.6666 9.81029 14.6592 10.0377 14.6266 10.7488C14.5941 11.4584 14.4815 11.9429 14.317 12.3666C14.1466 12.8051 13.9185 13.177 13.5474 13.5473C13.177 13.9184 12.8052 14.1466 12.3666 14.317C11.9429 14.4814 11.4585 14.594 10.7489 14.6266C10.0378 14.6592 9.81035 14.6666 7.99998 14.6666C6.18961 14.6666 5.9622 14.6592 5.25109 14.6266C4.54146 14.594 4.05702 14.4814 3.63331 14.317C3.19479 14.1466 2.82294 13.9184 2.45257 13.5473C2.08146 13.177 1.85331 12.8051 1.68294 12.3666C1.5185 11.9429 1.40591 11.4584 1.37331 10.7488C1.34072 10.0377 1.33331 9.81029 1.33331 7.99992C1.33331 6.18955 1.34072 5.96214 1.37331 5.25103C1.40591 4.5414 1.5185 4.05696 1.68294 3.63325C1.85331 3.19473 2.08146 2.82288 2.45257 2.45251C2.82294 2.0814 3.19479 1.85325 3.63331 1.68288C4.05702 1.51844 4.54146 1.40584 5.25109 1.37325ZM10.6941 2.57325C9.99109 2.5414 9.77998 2.53473 7.99998 2.53473C6.21998 2.53473 6.00887 2.5414 5.30591 2.57325C4.65628 2.60288 4.30294 2.71177 4.06813 2.80288C3.75702 2.92362 3.53479 3.06807 3.30146 3.3014C3.06813 3.53473 2.92368 3.75696 2.80294 4.06807C2.71183 4.30288 2.60294 4.65622 2.57331 5.30584C2.54146 6.00881 2.53479 6.21992 2.53479 7.99992C2.53479 9.77992 2.54146 9.99103 2.57331 10.694C2.60294 11.3436 2.71183 11.697 2.80294 11.9318C2.92368 12.2429 3.06813 12.4651 3.30146 12.6984C3.53479 12.9318 3.75702 13.0762 4.06813 13.197C4.30294 13.2881 4.65628 13.397 5.30591 13.4266C6.00887 13.4584 6.21998 13.4651 7.99998 13.4651C9.77998 13.4651 9.99109 13.4584 10.6941 13.4266C11.3437 13.397 11.697 13.2881 11.9318 13.197C12.2429 13.0762 12.4652 12.9318 12.6985 12.6984C12.9318 12.4651 13.0763 12.2429 13.197 11.9318C13.2881 11.697 13.397 11.3436 13.4266 10.694C13.4585 9.99103 13.4652 9.77992 13.4652 7.99992C13.4652 6.21992 13.4585 6.00881 13.4266 5.30584C13.397 4.65622 13.2881 4.30288 13.197 4.06807C13.0763 3.75696 12.9318 3.53473 12.6985 3.3014C12.4652 3.06807 12.2429 2.92362 11.9318 2.80288C11.697 2.71177 11.3437 2.60288 10.6941 2.57325ZM4.57628 7.99992C4.57628 6.10955 6.10961 4.57621 7.99998 4.57621C9.89035 4.57621 11.4237 6.10955 11.4237 7.99992C11.4237 9.89029 9.89035 11.4236 7.99998 11.4236C6.10961 11.4236 4.57628 9.89029 4.57628 7.99992ZM5.77776 7.99992C5.77776 9.22733 6.77257 10.2221 7.99998 10.2221C9.22739 10.2221 10.2222 9.22733 10.2222 7.99992C10.2222 6.77251 9.22739 5.7777 7.99998 5.7777C6.77257 5.7777 5.77776 6.77251 5.77776 7.99992ZM12.3586 4.44125C12.3586 4.88273 12.0001 5.24125 11.5586 5.24125C11.1172 5.24125 10.7586 4.88273 10.7586 4.44125C10.7586 3.99977 11.1172 3.64125 11.5586 3.64125C12.0001 3.64125 12.3586 3.99977 12.3586 4.44125" fill="#191816"/>
</svg>
