<svg width="24" height="23" viewBox="0 0 24 23" fill="none" xmlns="http://www.w3.org/2000/svg">
<path d="M22.5242 17.8326L19.0315 14.3398C18.6715 13.9799 18.1338 13.7577 17.5962 13.7577C17.014 13.7577 16.4763 13.9799 16.072 14.3843L15.0855 15.3708C14.8633 15.593 14.5922 15.6863 14.2811 15.6863C14.1034 15.6863 13.8768 15.6418 13.699 15.553C12.1748 14.6553 11.1439 13.8955 10.1618 12.909C9.04202 11.7892 8.28214 10.7138 7.51782 9.37178C7.2512 8.92296 7.34008 8.38527 7.69557 8.02978L8.68208 7.04328C9.48639 6.23896 9.53527 4.89252 8.72651 4.08821L5.22932 0.582126C4.86938 0.222185 4.33169 0 3.794 0C3.21187 0 2.67418 0.222185 2.26981 0.626563C1.11 1.79081 0.301244 2.73288 0.0790589 4.66145C-0.414193 8.55858 1.37662 12.1002 6.12694 16.8905C8.54432 19.3079 11.055 21.0143 13.5657 22.0408C15.6276 22.8451 17.1518 22.9829 17.9117 22.9829H18.3605C20.289 22.7607 21.1378 21.9963 22.3909 20.7877C23.2885 19.9833 23.2885 18.6369 22.5242 17.8326Z" fill="black"/>
</svg>
