<svg width="16" height="16" viewBox="0 0 16 16" fill="none" xmlns="http://www.w3.org/2000/svg">
<path fill-rule="evenodd" clip-rule="evenodd" d="M15 8C15 11.866 11.866 15 8 15C4.13401 15 1 11.866 1 8C1 4.13401 4.13401 1 8 1C11.866 1 15 4.13401 15 8ZM8.25084 6.16771C7.56999 6.4509 6.20924 7.03703 4.1686 7.92611C3.83723 8.05788 3.66364 8.1868 3.64784 8.31285C3.62114 8.52588 3.88791 8.60976 4.25119 8.72399C4.3006 8.73953 4.3518 8.75563 4.40429 8.77269C4.7617 8.88887 5.24247 9.02479 5.49241 9.03019C5.71913 9.03509 5.97217 8.94162 6.25153 8.74979C8.15817 7.46275 9.14238 6.81223 9.20417 6.7982C9.24777 6.78831 9.30818 6.77587 9.3491 6.81225C9.39003 6.84863 9.38601 6.91752 9.38168 6.936C9.35525 7.04867 8.30806 8.02223 7.76614 8.52605C7.5972 8.68311 7.47737 8.79452 7.45287 8.81996C7.39799 8.87696 7.34207 8.93087 7.28831 8.98269C6.95627 9.30278 6.70727 9.54282 7.3021 9.9348C7.58795 10.1232 7.81668 10.2789 8.04488 10.4343C8.29409 10.6041 8.54266 10.7733 8.86427 10.9841C8.9462 11.0379 9.02446 11.0936 9.10068 11.148C9.3907 11.3547 9.65126 11.5405 9.97317 11.5109C10.1602 11.4937 10.3534 11.3178 10.4516 10.7932C10.6834 9.55351 11.1393 6.86743 11.2446 5.76057C11.2538 5.66359 11.2422 5.53948 11.2329 5.485C11.2236 5.43052 11.2041 5.3529 11.1333 5.29543C11.0494 5.22738 10.9199 5.21303 10.862 5.214C10.5988 5.21869 10.1948 5.35914 8.25084 6.16771Z" fill="#191816"/>
</svg>
