<svg width="16" height="16" viewBox="0 0 16 16" fill="none" xmlns="http://www.w3.org/2000/svg">
<path fill-rule="evenodd" clip-rule="evenodd" d="M6.7778 10.14V5.8622L10.4445 8.00108L6.7778 10.14ZM15.1867 5.05771C15.1867 5.05771 15.0437 4.04077 14.6037 3.59307C14.0464 3.00529 13.4208 2.99639 13.1341 2.96155C11.0822 2.81257 8.00295 2.80664 8.00295 2.80664H7.99709C7.99709 2.80664 4.91855 2.81257 2.86595 2.96155C2.57922 2.99639 1.95442 3.00232 1.39635 3.59011C0.956354 4.0378 0.813354 5.05549 0.813354 5.05549C0.813354 5.05549 0.666687 6.25107 0.666687 7.44517V8.56441C0.666687 9.75851 0.813354 10.9526 0.813354 10.9526C0.813354 10.9526 0.956354 11.9696 1.39635 12.4173C1.95442 13.0043 2.68702 12.9858 3.01335 13.0473C4.18669 13.1607 8.00002 13.1955 8.00002 13.1955C8.00002 13.1955 11.0822 13.1911 13.1341 13.0421C13.4208 13.0073 14.0464 13.0043 14.6037 12.4173C15.0437 11.9696 15.1867 10.9526 15.1867 10.9526C15.1867 10.9526 15.3334 9.75851 15.3334 8.56441V7.44517C15.3334 6.25107 15.1867 5.05771 15.1867 5.05771Z" fill="#191816"/>
</svg>
