<svg width="110" height="110" viewBox="0 0 110 110" fill="none" xmlns="http://www.w3.org/2000/svg">
<rect x="0.5" y="0.5" width="109" height="109" rx="54.5" stroke="#A14A9C"/>
<rect x="36.0815" y="24.5" width="37.1569" height="61.4386" rx="8.44074" stroke="#A5A5A5"/>
<line x1="35.5815" y1="35.2939" x2="73.7385" y2="35.2939" stroke="#A5A5A5"/>
<rect x="48.1086" y="35.4324" width="13.1913" height="1.75883" fill="#A5A5A5"/>
<rect x="51.185" y="52.8745" width="4.95063" height="6.93417" rx="0.814815" transform="rotate(-28.7711 51.185 52.8745)" fill="#A5A5A5" stroke="#A5A5A5"/>
<path d="M48.3804 53.0208C48.0766 52.581 47.7727 51.4378 48.9881 50.3825" stroke="#131313"/>
<path d="M77.2075 41.2285C85.0702 48.1661 84.9545 62.8507 77.2075 68.979" stroke="#131313"/>
<path d="M79.7512 34.4065C91.5547 44.7551 91.3811 66.6597 79.7512 75.8009" stroke="#131313"/>
<path d="M83.22 29.0876C98.1297 42.0957 97.9104 69.6293 83.22 81.1198" stroke="#131313"/>
<path d="M32.1128 41.2285C24.2502 48.1661 24.3658 62.8507 32.1128 68.979" stroke="#131313"/>
<path d="M29.5691 34.4065C17.7656 44.7551 17.9392 66.6597 29.5691 75.8009" stroke="#131313"/>
<path d="M26.1001 29.0876C11.1904 42.0957 11.4097 69.6293 26.1001 81.1198" stroke="#131313"/>
</svg>
