<svg width="110" height="110" viewBox="0 0 110 110" fill="none" xmlns="http://www.w3.org/2000/svg">
<rect x="0.5" y="0.5" width="109" height="109" rx="54.5" stroke="#A14A9C"/>
<path d="M62.9228 56.1599L61.1073 54.8488L59.2918 56.1599V56.3617V59.6901H62.9228V56.1599Z" fill="#A5A5A5"/>
<path d="M58.384 56.8155L59.2918 56.1599M63.8305 56.8155L62.9228 56.1599M62.9228 56.1599L61.1073 54.8488L59.2918 56.1599M62.9228 56.1599V59.6901H59.2918V56.3617V56.1599" stroke="#A5A5A5" stroke-width="0.344072" stroke-linecap="round"/>
<path d="M48.7012 54.6974L49.9115 55.7565L49.4577 56.1467L49.3064 56.3617V56.6642V56.8155L49.4577 57.1181V57.4207L49.1551 57.572V57.8746V58.0259L49.3064 58.4797L49.6089 58.631L48.7012 59.6901H46.7344V56.1467L48.7012 54.6974Z" fill="#A5A5A5"/>
<path d="M45.8267 56.8155L46.7344 56.1467M46.7344 56.1467L48.7012 54.6974L49.9115 55.7565L49.4577 56.1467L49.3064 56.3617V56.6642V56.8155L49.4577 57.1181V57.4207L49.1551 57.572V57.8746V58.0259L49.3064 58.4797L49.6089 58.631L48.7012 59.6901H46.7344V56.1467Z" stroke="#A5A5A5" stroke-width="0.344072" stroke-linecap="round"/>
<path d="M50.3655 57.2694C50.0125 57.0677 49.4438 56.2104 50.3655 56.2104C51.4246 56.2104 50.8194 57.2694 50.3655 57.2694Z" fill="#A5A5A5"/>
<path d="M49.4578 59.9927L50.3655 58.7823M50.3655 58.7823L51.122 59.9927M50.3655 58.7823V57.7233M50.3655 57.7233L49.6091 58.1772M50.3655 57.7233L51.122 58.1772M50.3655 57.7233V57.2694M50.3655 57.2694C50.0125 57.0677 49.4438 56.2104 50.3655 56.2104C51.4246 56.2104 50.8194 57.2694 50.3655 57.2694Z" stroke="#A5A5A5" stroke-width="0.344072" stroke-linecap="round"/>
<path d="M61.8637 57.1182H60.9559H60.1995V58.3285H61.8637V57.1182Z" fill="white"/>
<path d="M62.3175 57.1182C62.3175 56.9164 62.2268 56.513 61.8637 56.513C61.4098 56.513 60.9559 56.513 60.9559 57.1182M60.9559 57.1182H61.8637V58.3285H60.1995V57.1182H60.9559Z" stroke="white" stroke-width="0.344072" stroke-linecap="round"/>
<path d="M41.8928 36.3911C48.1714 26.2304 61.4611 26.3799 67.0072 36.3911" stroke="#131313"/>
<path d="M35.5388 33.0627C44.9945 17.6185 65.0091 17.8456 73.3617 33.0627" stroke="#131313"/>
<path d="M31 28.524C42.8007 9.0155 67.779 9.30239 78.203 28.524" stroke="#131313"/>
<rect x="39.6699" y="42.035" width="29.8635" height="53.465" rx="11.8866" stroke="#A5A5A5"/>
<path d="M48.5498 67.5572V71.6421" stroke="#A5A5A5" stroke-linecap="round"/>
<path d="M60.3506 67.5572V71.6421" stroke="#A5A5A5" stroke-linecap="round"/>
<path d="M62.166 67.5572V71.6421" stroke="#A5A5A5" stroke-linecap="round"/>
</svg>
