<svg width="126" height="126" viewBox="0 0 126 126" fill="none" xmlns="http://www.w3.org/2000/svg">
<rect x="0.5" y="0.5" width="125" height="125" rx="62.5" stroke="#A14A9C"/>
<rect x="23.1085" y="22.578" width="76.1213" height="76.1213" rx="18.5759" stroke="#A5A5A5"/>
<circle cx="61.1692" cy="60.6386" r="28.7952" stroke="#A5A5A5"/>
<circle cx="61.1693" cy="60.6386" r="24.98" stroke="#A5A5A5"/>
<circle cx="61.1693" cy="60.6386" r="3.99647" stroke="#A5A5A5"/>
<circle cx="61.1692" cy="60.6386" r="10.2643" stroke="#A5A5A5"/>
<circle cx="61.1692" cy="60.6386" r="7.26663" stroke="#A5A5A5"/>
<rect x="64.5306" y="55.8246" width="34.6993" height="48.5974" rx="2.22513" fill="white" stroke="#A5A5A5"/>
<path d="M82.834 88.6193C82.834 88.6193 88.7142 99.1992 90.2955 99.1992C91.8767 99.1992 103 75.218 103 75.218" stroke="#131313" stroke-width="3" stroke-linecap="round"/>
<line x1="68.1183" y1="61.0699" x2="95.3696" y2="61.0699" stroke="#A5A5A5" stroke-width="0.5"/>
<line x1="68.1183" y1="62.9775" x2="95.3696" y2="62.9775" stroke="#A5A5A5" stroke-width="0.5"/>
<line x1="68.1183" y1="64.8851" x2="95.3696" y2="64.8851" stroke="#A5A5A5" stroke-width="0.5"/>
<line x1="68.1183" y1="66.7926" x2="95.3696" y2="66.7926" stroke="#A5A5A5" stroke-width="0.5"/>
<line x1="68.1183" y1="68.7003" x2="95.3696" y2="68.7003" stroke="#A5A5A5" stroke-width="0.5"/>
<line x1="68.1183" y1="70.6079" x2="95.3696" y2="70.6079" stroke="#A5A5A5" stroke-width="0.5"/>
<line x1="68.1183" y1="72.5155" x2="86.6492" y2="72.5155" stroke="#A5A5A5" stroke-width="0.5"/>
<line x1="68.1183" y1="74.423" x2="86.6492" y2="74.423" stroke="#A5A5A5" stroke-width="0.5"/>
</svg>
