<svg width="110" height="110" viewBox="0 0 110 110" fill="none" xmlns="http://www.w3.org/2000/svg">
<rect x="0.5" y="0.5" width="109" height="109" rx="54.5" stroke="#A14A9C"/>
<path d="M54.9748 15.0044C48.7722 14.9059 36.0126 16.4221 34.5949 23.2745C32.8228 31.8399 30.0168 62.5574 31.346 72.5996C32.6751 82.6418 39.616 94.0132 54.9748 94.0132M54.9242 15.0044C61.1267 14.9059 73.8863 16.4221 75.304 23.2745C77.0762 31.8399 79.8821 62.5574 78.553 72.5996C77.2239 82.6418 70.2829 94.0132 54.9242 94.0132" stroke="#A5A5A5"/>
<circle cx="55.072" cy="35.6796" r="4.07808" fill="#131313" stroke="#131313"/>
<path d="M60.3313 56.2071C60.3313 58.6418 58.0432 60.7282 55.0718 60.7282C52.1004 60.7282 49.8123 58.6418 49.8123 56.2071C49.8123 53.7724 52.1004 51.686 55.0718 51.686C58.0432 51.686 60.3313 53.7724 60.3313 56.2071Z" stroke="#A5A5A5"/>
<path d="M58.5592 56.2072C58.5592 57.8348 57.0548 59.2515 55.0718 59.2515C53.0888 59.2515 51.5845 57.8348 51.5845 56.2072C51.5845 54.5796 53.0888 53.1628 55.0718 53.1628C57.0548 53.1628 58.5592 54.5796 58.5592 56.2072Z" fill="#131313" stroke="#131313"/>
<path d="M55.234 66.2494C52.0342 66.1509 45.7234 64.9793 46.0778 61.0806C46.5208 56.2071 50.3605 49.5615 55.234 49.5615M54.6434 66.2494C57.8431 66.1509 64.154 64.9793 63.7995 61.0806C63.3565 56.2071 59.5168 49.5615 54.6434 49.5615" stroke="#A5A5A5"/>
<path d="M55.8856 71.1228H37.5732C36.9825 78.2114 39.6112 92.3887 54.8518 92.3887C70.0924 92.3887 72.7212 78.2114 72.1305 71.1228H53.8181" stroke="#A5A5A5"/>
</svg>
