<svg width="126" height="126" viewBox="0 0 126 126" fill="none" xmlns="http://www.w3.org/2000/svg">
<rect x="0.5" y="0.5" width="125" height="125" rx="62.5" stroke="#A14A9C"/>
<path d="M48.5776 22.0045C42.2191 21.9036 29.1387 23.4579 27.6853 30.4825C25.8686 39.2634 22.9921 70.7532 24.3547 81.048C25.7172 91.3427 32.8327 103 48.5776 103M48.5258 22.0045C54.8843 21.9036 67.9647 23.4579 69.4181 30.4825C71.2348 39.2634 74.1112 70.7532 72.7487 81.048C71.3862 91.3427 64.2707 103 48.5258 103" stroke="#A5A5A5"/>
<circle cx="48.6771" cy="43.1996" r="4.1932" fill="#131313" stroke="#131313"/>
<path d="M54.0815 64.2433C54.0815 66.7477 51.7285 68.8907 48.6772 68.8907C45.6258 68.8907 43.2728 66.7477 43.2728 64.2433C43.2728 61.7388 45.6258 59.5959 48.6772 59.5959C51.7285 59.5959 54.0815 61.7388 54.0815 64.2433Z" stroke="#A5A5A5"/>
<path d="M52.2648 64.2433C52.2648 65.9201 50.7156 67.3767 48.6772 67.3767C46.6388 67.3767 45.0896 65.9201 45.0896 64.2433C45.0896 62.5665 46.6388 61.1098 48.6772 61.1098C50.7156 61.1098 52.2648 62.5665 52.2648 64.2433Z" fill="#131313" stroke="#131313"/>
<path d="M48.8432 74.538C45.563 74.4371 39.0935 73.236 39.4568 69.2393C39.911 64.2433 43.8472 57.4306 48.8432 57.4306M48.2378 74.538C51.518 74.4371 57.9875 73.236 57.6242 69.2393C57.17 64.2433 53.2338 57.4306 48.2378 57.4306" stroke="#A5A5A5"/>
<path d="M49.5111 79.534H30.7383C30.1328 86.8009 32.8276 101.335 48.4514 101.335C64.0752 101.335 66.7701 86.8009 66.1645 79.534H47.3917" stroke="#A5A5A5"/>
<path d="M57.0557 30.4825C58.5071 23.4674 71.554 21.9078 77.922 22.0041C84.2901 21.9078 97.337 23.4674 98.7884 30.4825C100.605 39.2634 103.482 70.7532 102.119 81.048C100.757 91.3371 93.6489 102.987 77.922 103C62.1952 102.987 55.0868 91.3371 53.725 81.048C52.3625 70.7532 55.239 39.2634 57.0557 30.4825Z" fill="white"/>
<path d="M77.948 22.0045C71.5894 21.9036 58.5091 23.4579 57.0557 30.4825C55.239 39.2634 52.3625 70.7532 53.725 81.048C55.0876 91.3427 62.203 103 77.948 103M77.8961 22.0045C84.2546 21.9036 97.335 23.4579 98.7884 30.4825C100.605 39.2634 103.482 70.7532 102.119 81.048C100.757 91.3427 93.6411 103 77.8961 103" stroke="#A5A5A5"/>
<circle cx="78.0474" cy="49.705" r="3.28484" fill="#131313" stroke="#131313"/>
<circle cx="66.8444" cy="49.705" r="0.862541" fill="#131313" stroke="#131313"/>
<circle cx="89.2505" cy="49.705" r="0.862541" fill="#131313" stroke="#131313"/>
<path d="M78.8815 79.534H60.1087C59.5031 86.8009 62.1979 101.335 77.8217 101.335C93.4455 101.335 96.1404 86.8009 95.5349 79.534H76.7621" stroke="#A5A5A5"/>
</svg>
