<?xml version="1.0" encoding="UTF-8"?>
<svg xmlns="http://www.w3.org/2000/svg" xmlns:xlink="http://www.w3.org/1999/xlink" id="Слой_1" data-name="Слой 1" viewBox="0 0 485.24 128.06">
  <defs>
    <style>.cls-1{fill:none;}.cls-2{clip-path:url(#clip-path);}.cls-3{fill:#f03;}</style>
    <clipPath id="clip-path" transform="translate(-2.76 -7.97)">
      <rect class="cls-1" width="144" height="144"></rect>
    </clipPath>
  </defs>
  <title>ariol bird2</title>
  <g class="cls-2">
    <path class="cls-3" d="M129,42.88c-.48-1-1-2-1.56-2.88s-1.12-1.92-1.72-2.8A64,64,0,0,0,52.8,10.92a61.5,61.5,0,0,0-8.48,3.4c-1.44.68-2.88,1.44-4.32,2.24A63.85,63.85,0,0,0,24.35,29.24,39.91,39.91,0,0,0,2.76,32a40.16,40.16,0,0,0,8.39,20.07A64,64,0,0,0,104,127.44c1.44-.84,2.8-1.72,4.12-2.64A105.48,105.48,0,0,1,76.6,103.64,32,32,0,0,1,46.88,52.2a30.28,30.28,0,0,1,6.76-6.4c.76-.52,1.52-1,2.36-1.52A32,32,0,1,1,88,99.72c-.84.48-1.64.88-2.48,1.28a99.09,99.09,0,0,0,29.76,18.16,102.73,102.73,0,0,0,19.4,5.4A99.81,99.81,0,0,0,129,42.88ZM38,44a6,6,0,1,1,6-6A6,6,0,0,1,38,44Z" transform="translate(-2.76 -7.97)"></path>
  </g>
  <path d="M252,117H231.68v-9.35q-8.34,10.5-20.66,10.51T190.36,111Q182,103.87,182,92t8.64-17.78q8.64-5.91,23.62-5.91h16.13v-.43q0-12.37-13.11-12.39a35.38,35.38,0,0,0-11.88,2.24,38.39,38.39,0,0,0-10.59,5.54l-9.64-14A57.78,57.78,0,0,1,220,38.21q14.11,0,23,7.06T252,67.59ZM230.24,87.46V83.72H216.71q-13,0-13,8.06a7.43,7.43,0,0,0,3.1,6.41c2.07,1.49,5,2.23,8.86,2.23a15.75,15.75,0,0,0,10.15-3.52A11.49,11.49,0,0,0,230.24,87.46Z" transform="translate(-2.76 -7.97)"></path>
  <path d="M312.47,58.52q-9.66,0-14.41,6.84t-4.75,18.07V117h-21.6V39.51h21.6V49.73a36.44,36.44,0,0,1,10.44-8.06,28.44,28.44,0,0,1,12.75-3.46l.15,20.31Z" transform="translate(-2.76 -7.97)"></path>
  <path d="M332.7,29.65a12.24,12.24,0,0,1-3.67-9,12.67,12.67,0,1,1,25.34,0,12.73,12.73,0,0,1-21.67,9ZM352.5,117H330.9V39.51h21.6Z" transform="translate(-2.76 -7.97)"></path>
  <path d="M450.42,78.25a38.34,38.34,0,0,1-11.66,28.37q-11.67,11.52-29.31,11.52t-29.3-11.52a38.31,38.31,0,0,1-11.67-28.37A38.55,38.55,0,0,1,380.15,49.8q11.67-11.58,29.3-11.59T438.76,49.8A38.58,38.58,0,0,1,450.42,78.25Zm-60.19,0q0,9.5,5.4,15.48a19,19,0,0,0,27.65,0q5.4-6,5.4-15.48t-5.4-15.55a18.82,18.82,0,0,0-27.65,0Q390.23,68.75,390.23,78.25Z" transform="translate(-2.76 -7.97)"></path>
  <path d="M488,117H466.4V10.14H488Z" transform="translate(-2.76 -7.97)"></path>
</svg>
