<svg width="180" height="78" viewBox="0 0 180 78" fill="none" xmlns="http://www.w3.org/2000/svg">
<path d="M123.47 26.3548H86.3716V29.3337C85.8174 27.8615 85.2112 26.424 84.5704 25.0904C84.5704 25.0904 82.0071 20.5874 81.8512 20.3623H81.8686L84.3625 20.7952L83.1329 18.5784C82.9597 18.2839 81.4009 15.7207 76.0146 14.8894C75.98 14.5949 75.9973 13.9368 76.4476 12.6032C76.6035 12.1529 76.742 11.7372 76.8633 11.3562C77.3655 9.81478 77.6946 8.81026 78.041 8.44655C78.2142 8.25604 78.5432 8.13481 79.8076 8.04821C80.7948 7.97893 81.5741 7.96161 82.1976 7.94429C83.5139 7.92697 84.3972 7.90965 84.986 7.19956C85.5229 6.57606 85.4537 5.79669 85.3497 5.12124C85.3151 4.87877 85.2805 4.61898 85.2632 4.32455C85.1419 3.09488 84.986 1.57077 83.8949 0.704806C83.2887 0.219864 82.5267 0.0466704 81.6088 0.167906C79.2187 0.496973 72.3083 2.76581 72.0138 2.8524L71.6155 2.99096L71.3904 3.33735C71.2864 3.49322 68.7751 7.25152 67.9265 11.3562C67.2683 14.4737 66.056 16.4308 63.9777 17.6778C63.4754 17.9029 58.9724 19.9812 54.937 20.3623L52.0446 20.6394L54.2788 22.4925C54.4001 22.5965 57.2751 24.7787 57.2751 24.7787C56.9807 25.7313 56.7035 26.6492 56.4611 27.5152V26.3721H37.2366V29.2125L34.275 26.3721H24.8013L21.1296 29.9052V26.3721H0V60.318H21.1469V56.7849L24.8186 60.318H34.2577L40.1116 54.6892V36.6944H41.3759V60.3007H52.2871V36.6944H54.123C53.2397 41.4053 53.2224 44.9038 53.7766 49.3722C53.9844 51.0868 54.2096 52.8534 54.4001 54.8797C54.6252 57.3218 55.0062 62.0153 55.4912 65.8256L71.0266 72.7533L82.4401 67.6614C82.596 66.6396 82.6479 66.3278 82.8211 65.2713C83.2714 62.5695 83.791 59.6079 84.3452 56.4731C85.1419 52.0047 85.8347 48.0386 86.3716 44.6267V60.3353H131.35L131.887 54.9317H132.354L132.978 60.3353H155.909L160.308 56.0921L164.707 60.3353H174.146L180 54.7065V43.8127L176.744 40.5913H179.654V31.9835L173.8 26.3548H165.019L160.446 30.7539L155.909 26.3548H140.616V37.6123L138.78 26.3548H124.803L123.47 36.6944H123.348L123.47 26.3548ZM161.763 41.8036L161.624 41.6651V33.0227L161.763 32.8842V41.8036Z" fill="#1E1E1E"/>
<path d="M58.6952 24.2592C58.6952 24.2592 62.8865 28.0695 72.5507 22.8563C82.2149 17.6432 81.3836 21.1764 81.3836 21.1764C81.3836 21.1764 88.4499 31.8624 84.6396 47.9521C83.306 53.5982 82.2669 60.4913 81.5048 67.038L71.0266 71.4544L56.6169 65.6005C54.2961 49.5628 52.9452 30.1131 58.6952 24.2592Z" fill="#BE4059"/>
<path d="M57.8812 26.7704C57.8812 26.7704 61.3797 28.814 65.7615 29.0046C65.7615 29.0046 68.5499 27.5324 65.7615 35.2915L58.6952 39.7599C58.6952 39.7599 56.7381 45.7177 57.0152 49.0257C57.2231 51.3812 58.4701 60.3179 59.336 66.2065C59.6824 68.562 76.2051 73.6192 76.8632 68.8391C77.6772 62.9678 78.5778 55.5032 78.5778 51.3985C78.5778 43.9685 81.0891 38.842 80.812 36.7117C80.5349 34.5814 79.3399 35.0144 77.6599 26.9436C77.5387 26.3201 77.2616 25.7312 78.803 24.6574C80.4656 23.4797 81.5741 22.9428 81.5741 22.2154C81.5741 21.488 79.617 19.2365 79.617 19.2365C79.617 19.2365 66.3677 26.4933 62.4882 26.0256C58.6086 25.558 58.3662 24.7267 57.8812 26.7704Z" fill="#B52B46"/>
<path d="M54.7984 21.4188C54.833 21.5227 64.1855 28.5544 71.5982 23.2373C79.0109 17.9203 82.3535 19.2539 82.3535 19.2539L74.733 15.2358L77.6946 7.02644L84.4318 6.40294L83.0982 1.18982L72.0312 4.11679L67.1817 16.5174L61.5529 19.7042L54.7984 21.4188Z" fill="#006641"/>
<path d="M55.5778 44.9731C55.5778 44.9731 58.2623 32.3646 59.44 29.4896C60.6177 26.6146 59.4227 27.9655 58.6606 27.2727C57.8985 26.58 54.9369 41.6824 55.5778 44.9731ZM56.7555 22.1809C63.891 23.1161 68.446 21.9211 70.0741 16.1364C72.2563 8.44662 72.2563 7.59797 73.6765 6.00459C75.0967 4.41121 82.8384 2.19434 82.8384 2.19434L72.4814 3.83967L67.5627 14.4218L65.0514 18.0069L56.0627 21.644L56.7555 22.1809Z" fill="white"/>
<path d="M60.3059 45.9083C60.3059 45.9083 63.562 43.6395 60.3059 42.2713C57.0499 40.903 68.6538 32.2434 69.7796 31.897C70.888 31.5506 74.2826 31.1696 76.1185 34.8932C76.1185 34.8932 74.196 38.8767 73.9362 40.8511C73.6765 42.8255 73.9016 43.5875 73.9709 43.8993C74.0575 44.1937 70.178 45.5273 70.178 45.5273L65.9867 46.4626C66.004 46.4799 61.9339 47.1034 60.3059 45.9083ZM62.5921 47.952C63.6486 48.0559 66.0906 48.1945 67.9438 47.5537C68.1169 47.5017 68.2555 47.6576 68.1862 47.8308C67.5974 49.1297 67.4588 49.6147 63.1636 49.4588C63.0597 49.4588 62.9904 49.3722 62.9731 49.2856C62.9558 49.1124 62.8345 48.7833 62.4189 48.2984C62.2976 48.1425 62.4189 47.9347 62.5921 47.952Z" fill="#8B2739"/>
<path d="M77.1923 35.1011C76.4649 34.8239 75.5124 34.5468 74.7849 34.3044C71.5809 33.1613 69.8663 33.1093 68.55 33.7328C67.1991 34.3736 65.9001 35.1011 64.5319 35.7072C62.8866 36.452 61.3278 36.9715 59.3881 36.8849C58.8165 36.8676 58.0891 36.5732 57.9679 37.266C57.6042 39.3443 58.2103 43.0333 61.2759 42.5484C62.8519 42.3059 63.3715 41.2148 63.6486 39.76C63.7525 39.2231 64.2028 38.1146 64.8263 37.9761C65.5884 37.8029 66.0733 38.5649 66.4717 39.0672C67.8226 40.7645 70.0741 43.5356 72.5854 42.3405C73.7458 41.7863 74.352 40.6259 74.681 39.4309C74.8715 38.7554 75.0274 38.08 75.2179 37.4045C75.4604 36.5386 75.9453 35.3262 77.1404 35.2742C77.2789 35.2742 77.2789 35.1357 77.1923 35.1011Z" fill="#1E1E1E"/>
<path d="M73.0356 37.4565C72.9144 36.6945 72.0831 36.1056 71.4769 35.7592C71.0612 35.5168 69.8662 35.1704 69.1907 35.7073C68.6712 36.1229 68.4806 37.3873 68.7404 37.9934C69.4159 39.5695 70.8014 40.4008 72.1523 39.1538C72.62 38.7208 73.1396 38.1493 73.0356 37.4565ZM62.4535 38.565C62.4708 38.3745 62.4708 38.2013 62.4708 38.0973C62.4708 38.0454 62.4189 37.9934 62.3669 37.9934C61.882 38.0107 61.4143 38.1666 60.9294 38.2705C60.4791 38.3745 60.0288 38.4784 59.5785 38.6169C59.0416 38.7901 59.4053 40.0025 59.8556 40.4008C60.4271 40.8858 61.3451 40.5047 61.7954 40.0371C62.1764 39.6388 62.3669 39.2751 62.4535 38.565Z" fill="white"/>
<path d="M74.0922 45.7004C74.0056 45.8736 73.7804 45.7697 73.7631 45.6138C73.7285 45.2675 73.9017 44.8518 73.6938 44.54C73.6765 44.5054 71.425 45.4407 70.4205 45.8217C69.2947 46.2547 68.1516 46.4279 66.9912 46.6703C64.7744 47.1206 62.3496 47.4324 60.2367 46.5318C60.0981 46.4798 60.0462 46.2547 60.1328 46.1334C60.4618 45.6312 60.9468 45.2501 61.449 44.9384C61.4664 44.9384 61.4837 44.9557 61.4664 44.9557C61.1719 45.2848 60.9814 45.6138 60.8082 45.9949C62.2111 46.4279 64.6012 46.3932 67.2857 45.891C68.4114 45.6831 69.5025 45.3021 70.559 44.9037C71.1998 44.6613 71.8407 44.3495 72.4815 44.0897C71.9619 43.9858 71.4596 43.8646 70.9401 43.7607C70.8188 43.726 70.8188 43.5355 70.9401 43.5009C71.4423 43.397 71.9792 43.2931 72.4988 43.3104C72.9145 43.3277 73.5206 43.3104 73.8843 43.5009C74.6291 43.8992 74.3693 45.1116 74.0922 45.7004Z" fill="#1E1E1E"/>
<path d="M65.0515 19.808L65.1381 19.7561C66.1946 19.1326 67.0952 18.3532 67.8399 17.418C68.983 15.9805 69.7797 14.1273 70.2646 11.8238C70.8881 8.8449 72.5508 5.96989 73.157 5C75.3565 4.28991 80.2233 2.78313 81.9206 2.54066C82.1284 2.50602 82.3016 2.52334 82.3709 2.5753C82.648 2.80045 82.7692 3.89157 82.8212 4.53238C82.8558 4.82681 82.8731 5.13856 82.9251 5.43299V5.46763C82.6826 5.48495 82.3882 5.48495 82.1284 5.48495C81.4703 5.50226 80.6562 5.51958 79.5998 5.58886C78.2142 5.69278 77.0711 5.84865 76.2225 6.76658C75.5297 7.52863 75.1833 8.60243 74.5252 10.5595C74.404 10.9405 74.2654 11.3389 74.1095 11.7892C73.4341 13.8156 73.3648 15.2531 73.919 16.2229C74.3347 16.9504 74.9409 17.1235 75.1141 17.1582L75.218 17.1755C76.8806 17.4007 78.093 17.799 78.9763 18.2147C78.422 18.3532 77.8505 18.5437 77.279 18.7689C76.1879 19.1845 75.0621 19.6868 73.9017 20.2584C72.7759 20.8126 71.6329 21.4187 70.4898 22.0076C68.0997 23.2546 65.6404 24.5535 64.4107 24.7441C63.4928 24.8826 62.1419 24.5016 60.5138 23.6876C60.0635 23.4624 59.5959 23.2026 59.0937 22.9082C58.7299 22.6831 58.3662 22.4579 58.0372 22.2328C61.7089 21.4014 64.8783 19.8946 65.0515 19.808ZM55.4912 65.8082L71.0267 72.736L82.4401 67.6441L81.7474 64.9249L71.0094 69.7397L56.236 63.1064L55.4912 65.8082ZM57.2578 24.7614C53.5168 37.0581 52.8414 41.8729 53.7939 49.3549C54.0018 51.0695 54.2269 52.836 54.4174 54.8624C54.6426 57.3044 55.0236 61.998 55.5085 65.8082L57.8986 65.2713C57.2924 60.9588 56.8941 57.3044 56.6516 54.6719C56.4611 52.6109 56.236 50.827 56.0281 49.0951C55.0929 41.6651 56.132 37.9934 59.3534 25.8525C60.8949 26.6319 62.5748 27.238 64.0816 27.238C64.3241 27.238 64.5492 27.2207 64.7917 27.1861C66.4371 26.9436 68.8618 25.6793 71.6675 24.2072C73.3128 23.3412 75.1487 22.3713 76.8633 21.6266C77.6946 21.2629 78.5086 20.9338 79.2534 20.7087C79.8596 21.5053 80.4831 22.4752 81.0719 23.5144C82.8212 26.5626 84.3972 30.2863 85.038 32.278C85.7481 34.5122 84.5185 42.6003 83.1329 50.5672C81.1239 54.3428 77.9371 57.2178 77.0019 58.0145C76.9153 58.0838 76.9672 58.2224 77.0885 58.2224C79.1495 58.0492 81.1065 57.062 82.0938 56.4904C81.5569 59.4694 81.0546 62.2924 80.6389 64.8903C80.5177 65.6177 80.3965 66.3451 80.2925 67.0552L82.4748 67.6441C82.6307 66.6222 82.6826 66.3105 82.8558 65.254C83.3061 62.5522 83.8257 59.5906 84.3799 56.4558C86.7007 43.4143 88.1555 34.6507 87.1856 31.5852C86.4582 29.3337 85.5749 27.1168 84.6051 25.0904C84.6051 25.0904 82.0418 20.5874 81.8859 20.3623H81.9032L84.3972 20.7952L83.1676 18.5784C82.9944 18.2839 81.4356 15.7207 76.0493 14.8894C76.0147 14.5949 76.032 13.9368 76.4823 12.6032C76.6382 12.1529 76.7767 11.7372 76.8979 11.3562C77.4002 9.81478 77.7293 8.81026 78.0757 8.44655C78.2489 8.25604 78.5779 8.13481 79.8422 8.04821C80.8294 7.97893 81.6088 7.96161 82.2323 7.94429C83.5486 7.90966 84.4319 7.90965 85.0207 7.19956C85.5576 6.57606 85.4883 5.79669 85.3844 5.12124C85.3498 4.87877 85.3152 4.61898 85.2978 4.32455C85.1766 3.09488 85.0207 1.57077 83.9296 0.704806C83.3234 0.219864 82.5614 0.0466704 81.6434 0.167906C79.2534 0.496973 72.343 2.76581 72.0485 2.8524L71.6502 2.99096L71.425 3.33735C71.3211 3.49322 68.8098 7.25152 67.9612 11.3562C67.303 14.4737 66.0907 16.4308 64.0123 17.6778C63.5101 17.9029 59.0071 19.9812 54.9716 20.3623L52.0793 20.6394L54.3135 22.4925C54.3655 22.5791 57.2578 24.7614 57.2578 24.7614Z" fill="#1E1E1E"/>
<path d="M18.7222 57.8759H12.6605V46.0295H8.50382V57.8759H2.44204V28.7794H8.50382V40.5393H12.6605V28.7794H18.7222V57.8759ZM37.8428 53.6327L33.4437 57.8759H25.9617L21.5626 53.6327V33.0227L25.9617 28.7794H33.4437L37.8428 33.0227V53.6327ZM27.6244 34.2697V52.3857H31.781V34.2697H27.6244ZM54.0017 34.2697H49.8451V57.8759H43.7833V34.2697H39.6267V28.7794H54.0017V34.2697ZM105.094 57.8759H99.0321V46.0295H94.8754V57.8759H88.8136V28.7794H94.8754V40.5393H99.0321V28.7794H105.094V57.8759ZM121.045 34.2697H114.221V39.7599H120.006V45.2501H114.221V52.403H121.045V57.8933H108.159V28.7967H121.045V34.2697ZM141.464 57.8759H135.143L134.519 52.4723H129.705L129.168 57.8759H122.846L126.916 28.7794H136.719L141.464 57.8759ZM132.441 34.3043H131.731L130.242 46.9821H133.809L132.441 34.3043ZM159.338 53.6327L154.939 57.8759H143.058V28.7794H154.939L159.338 33.0227V53.6327ZM149.102 34.2697V52.3857H153.259V34.2697H149.102ZM172.847 28.7794L177.246 33.0227V38.1838H171.514V34.2697H167.357V40.1756L173.297 40.5912L177.575 44.8345V53.65L173.176 57.8933H165.694L161.295 53.65V48.5408H167.357V52.403H171.514V46.3759L165.902 45.9256L161.624 41.6823V33.04L166.023 28.7967L172.847 28.7794Z" fill="white"/>
<path opacity="0.5" d="M105.481 66.4014H101.986L101.995 72.3618H101.311V65.8016H105.481V66.4014ZM107.112 72.4087C106.637 72.4087 106.209 72.3025 105.828 72.09C105.447 71.8714 105.147 71.5715 104.928 71.1904C104.709 70.8092 104.6 70.3781 104.6 69.8971C104.6 69.416 104.709 68.9849 104.928 68.6038C105.147 68.2226 105.447 67.9259 105.828 67.7134C106.209 67.501 106.637 67.3948 107.112 67.3948C107.586 67.3948 108.014 67.501 108.396 67.7134C108.777 67.9259 109.073 68.2226 109.286 68.6038C109.505 68.9849 109.614 69.416 109.614 69.8971C109.614 70.3781 109.505 70.8092 109.286 71.1904C109.073 71.5715 108.777 71.8714 108.396 72.09C108.014 72.3025 107.586 72.4087 107.112 72.4087ZM107.112 71.8183C107.461 71.8183 107.774 71.7402 108.049 71.584C108.33 71.4215 108.549 71.1935 108.705 70.8998C108.861 70.6062 108.939 70.2719 108.939 69.8971C108.939 69.5222 108.861 69.1879 108.705 68.8943C108.549 68.6006 108.33 68.3757 108.049 68.2195C107.774 68.0571 107.461 67.9759 107.112 67.9759C106.762 67.9759 106.446 68.0571 106.165 68.2195C105.89 68.3757 105.671 68.6006 105.509 68.8943C105.353 69.1879 105.275 69.5222 105.275 69.8971C105.275 70.2719 105.353 70.6062 105.509 70.8998C105.671 71.1935 105.89 71.4215 106.165 71.584C106.446 71.7402 106.762 71.8183 107.112 71.8183ZM113.576 67.3948C114.038 67.3948 114.457 67.501 114.831 67.7134C115.206 67.9196 115.5 68.2133 115.712 68.5944C115.925 68.9755 116.031 69.4097 116.031 69.8971C116.031 70.3906 115.925 70.828 115.712 71.2091C115.5 71.5902 115.206 71.887 114.831 72.0994C114.463 72.3056 114.044 72.4087 113.576 72.4087C113.176 72.4087 112.813 72.3275 112.489 72.165C112.17 71.9963 111.908 71.7527 111.701 71.434V74.1799H111.036V67.4323H111.673V68.407C111.873 68.0821 112.136 67.8322 112.46 67.6572C112.792 67.4823 113.163 67.3948 113.576 67.3948ZM113.529 71.8183C113.872 71.8183 114.185 71.7402 114.466 71.584C114.747 71.4215 114.966 71.1935 115.122 70.8998C115.284 70.6062 115.366 70.2719 115.366 69.8971C115.366 69.5222 115.284 69.1911 115.122 68.9037C114.966 68.61 114.747 68.382 114.466 68.2195C114.185 68.0571 113.872 67.9759 113.529 67.9759C113.179 67.9759 112.863 68.0571 112.582 68.2195C112.307 68.382 112.089 68.61 111.926 68.9037C111.77 69.1911 111.692 69.5222 111.692 69.8971C111.692 70.2719 111.77 70.6062 111.926 70.8998C112.089 71.1935 112.307 71.4215 112.582 71.584C112.863 71.7402 113.179 71.8183 113.529 71.8183ZM121.073 67.4323V72.3618H120.464V70.7311H118.917H118.73L117.587 72.3618H116.865L118.093 70.6374C117.712 70.5312 117.418 70.35 117.212 70.0939C117.006 69.8377 116.903 69.5128 116.903 69.1192C116.903 68.5694 117.09 68.1508 117.465 67.8634C117.84 67.576 118.352 67.4323 119.002 67.4323H121.073ZM117.577 69.1379C117.577 69.8689 118.043 70.2344 118.974 70.2344H120.464V68.0227H119.021C118.058 68.0227 117.577 68.3945 117.577 69.1379ZM126.691 67.4323V72.3618H126.025V70.3094C125.457 70.5593 124.898 70.6843 124.348 70.6843C123.754 70.6843 123.292 70.55 122.961 70.2813C122.63 70.0064 122.464 69.5972 122.464 69.0536V67.4323H123.13V69.0161C123.13 69.3847 123.248 69.6659 123.486 69.8596C123.723 70.047 124.051 70.1407 124.47 70.1407C124.932 70.1407 125.451 70.0189 126.025 69.7752V67.4323H126.691ZM128.58 67.4323H129.246V71.3497L132.535 67.4323H133.126V72.3618H132.46V68.4444L129.18 72.3618H128.58V67.4323ZM139.344 70.1032H135.22C135.258 70.6156 135.454 71.031 135.81 71.3497C136.167 71.6621 136.616 71.8183 137.16 71.8183C137.466 71.8183 137.747 71.7652 138.003 71.6589C138.26 71.5465 138.481 71.384 138.669 71.1716L139.044 71.6027C138.825 71.8651 138.55 72.065 138.219 72.2025C137.894 72.3399 137.535 72.4087 137.141 72.4087C136.635 72.4087 136.185 72.3025 135.792 72.09C135.404 71.8714 135.101 71.5715 134.883 71.1904C134.664 70.8092 134.555 70.3781 134.555 69.8971C134.555 69.416 134.658 68.9849 134.864 68.6038C135.076 68.2226 135.364 67.9259 135.726 67.7134C136.095 67.501 136.507 67.3948 136.963 67.3948C137.419 67.3948 137.829 67.501 138.191 67.7134C138.553 67.9259 138.838 68.2226 139.044 68.6038C139.25 68.9786 139.353 69.4097 139.353 69.8971L139.344 70.1032ZM136.963 67.9665C136.488 67.9665 136.089 68.1196 135.764 68.4257C135.445 68.7256 135.264 69.1192 135.22 69.6065H138.716C138.672 69.1192 138.488 68.7256 138.163 68.4257C137.844 68.1196 137.444 67.9665 136.963 67.9665ZM147.608 66.4014H144.113L144.122 72.3618H143.438V65.8016H147.608V66.4014ZM149.239 72.4087C148.764 72.4087 148.336 72.3025 147.955 72.09C147.573 71.8714 147.274 71.5715 147.055 71.1904C146.836 70.8092 146.727 70.3781 146.727 69.8971C146.727 69.416 146.836 68.9849 147.055 68.6038C147.274 68.2226 147.573 67.9259 147.955 67.7134C148.336 67.501 148.764 67.3948 149.239 67.3948C149.713 67.3948 150.141 67.501 150.522 67.7134C150.904 67.9259 151.2 68.2226 151.413 68.6038C151.631 68.9849 151.741 69.416 151.741 69.8971C151.741 70.3781 151.631 70.8092 151.413 71.1904C151.2 71.5715 150.904 71.8714 150.522 72.09C150.141 72.3025 149.713 72.4087 149.239 72.4087ZM149.239 71.8183C149.588 71.8183 149.901 71.7402 150.176 71.584C150.457 71.4215 150.676 71.1935 150.832 70.8998C150.988 70.6062 151.066 70.2719 151.066 69.8971C151.066 69.5222 150.988 69.1879 150.832 68.8943C150.676 68.6006 150.457 68.3757 150.176 68.2195C149.901 68.0571 149.588 67.9759 149.239 67.9759C148.889 67.9759 148.573 68.0571 148.292 68.2195C148.017 68.3757 147.798 68.6006 147.636 68.8943C147.48 69.1879 147.402 69.5222 147.402 69.8971C147.402 70.2719 147.48 70.6062 147.636 70.8998C147.798 71.1935 148.017 71.4215 148.292 71.584C148.573 71.7402 148.889 71.8183 149.239 71.8183ZM157.165 67.4323V72.3618H156.5V68.0227H154.138L154.073 69.241C154.023 70.2657 153.904 71.0529 153.716 71.6027C153.529 72.1525 153.195 72.4274 152.714 72.4274C152.582 72.4274 152.423 72.4024 152.236 72.3524L152.283 71.7808C152.395 71.8058 152.473 71.8183 152.517 71.8183C152.773 71.8183 152.967 71.6995 153.098 71.4621C153.229 71.2247 153.317 70.9311 153.36 70.5812C153.404 70.2313 153.442 69.769 153.473 69.1942L153.557 67.4323H157.165ZM161.09 72.4087C160.616 72.4087 160.188 72.3025 159.807 72.09C159.425 71.8714 159.126 71.5715 158.907 71.1904C158.688 70.8092 158.579 70.3781 158.579 69.8971C158.579 69.416 158.688 68.9849 158.907 68.6038C159.126 68.2226 159.425 67.9259 159.807 67.7134C160.188 67.501 160.616 67.3948 161.09 67.3948C161.565 67.3948 161.993 67.501 162.374 67.7134C162.755 67.9259 163.052 68.2226 163.265 68.6038C163.483 68.9849 163.593 69.416 163.593 69.8971C163.593 70.3781 163.483 70.8092 163.265 71.1904C163.052 71.5715 162.755 71.8714 162.374 72.09C161.993 72.3025 161.565 72.4087 161.09 72.4087ZM161.09 71.8183C161.44 71.8183 161.753 71.7402 162.028 71.584C162.309 71.4215 162.527 71.1935 162.684 70.8998C162.84 70.6062 162.918 70.2719 162.918 69.8971C162.918 69.5222 162.84 69.1879 162.684 68.8943C162.527 68.6006 162.309 68.3757 162.028 68.2195C161.753 68.0571 161.44 67.9759 161.09 67.9759C160.741 67.9759 160.425 68.0571 160.144 68.2195C159.869 68.3757 159.65 68.6006 159.488 68.8943C159.332 69.1879 159.254 69.5222 159.254 69.8971C159.254 70.2719 159.332 70.6062 159.488 70.8998C159.65 71.1935 159.869 71.4215 160.144 71.584C160.425 71.7402 160.741 71.8183 161.09 71.8183ZM168.154 69.8127C168.823 69.9689 169.157 70.3719 169.157 71.0217C169.157 71.4528 168.998 71.7839 168.679 72.0151C168.36 72.2462 167.886 72.3618 167.255 72.3618H165.015V67.4323H167.189C167.751 67.4323 168.192 67.5416 168.51 67.7603C168.829 67.979 168.988 68.2914 168.988 68.6975C168.988 68.9661 168.913 69.1973 168.763 69.391C168.62 69.5784 168.417 69.719 168.154 69.8127ZM165.661 69.6253H167.142C167.523 69.6253 167.814 69.5534 168.014 69.4097C168.22 69.266 168.323 69.0567 168.323 68.7818C168.323 68.5069 168.22 68.3007 168.014 68.1633C167.814 68.0258 167.523 67.9571 167.142 67.9571H165.661V69.6253ZM167.226 71.837C167.651 71.837 167.97 71.7683 168.182 71.6308C168.395 71.4934 168.501 71.2778 168.501 70.9842C168.501 70.6905 168.404 70.475 168.211 70.3375C168.017 70.1938 167.711 70.122 167.292 70.122H165.661V71.837H167.226ZM172.788 69.1754C173.406 69.1817 173.878 69.3191 174.203 69.5878C174.528 69.8564 174.69 70.2438 174.69 70.7499C174.69 71.2747 174.515 71.6777 174.165 71.9588C173.815 72.24 173.316 72.3774 172.666 72.3712L170.717 72.3618V67.4323H171.382V69.1567L172.788 69.1754ZM175.515 67.4323H176.18V72.3618H175.515V67.4323ZM172.628 71.8651C173.084 71.8714 173.428 71.7808 173.659 71.5933C173.897 71.3997 174.015 71.1185 174.015 70.7499C174.015 70.3875 173.9 70.1189 173.669 69.9439C173.437 69.769 173.091 69.6784 172.628 69.6721L171.382 69.6534V71.8464L172.628 71.8651Z" fill="#1E1E1E"/>
</svg>
