<svg width="158" height="24" viewBox="0 0 158 24" fill="none" xmlns="http://www.w3.org/2000/svg">
<path d="M79 0L81.6942 8.2918H90.4127L83.3593 13.4164L86.0534 21.7082L79 16.5836L71.9466 21.7082L74.6407 13.4164L67.5873 8.2918H76.3058L79 0Z" fill="#FFBB36"/>
<path d="M113 0L115.694 8.2918H124.413L117.359 13.4164L120.053 21.7082L113 16.5836L105.947 21.7082L108.641 13.4164L101.587 8.2918H110.306L113 0Z" fill="#FFBB36"/>
<path d="M146 0L148.694 8.2918H157.413L150.359 13.4164L153.053 21.7082L146 16.5836L138.947 21.7082L141.641 13.4164L134.587 8.2918H143.306L146 0Z" fill="#FFBB36"/>
<path d="M45 0L47.6942 8.2918H56.4127L49.3593 13.4164L52.0534 21.7082L45 16.5836L37.9466 21.7082L40.6407 13.4164L33.5873 8.2918H42.3058L45 0Z" fill="#FFBB36"/>
<path d="M12 0L14.6942 8.2918H23.4127L16.3593 13.4164L19.0534 21.7082L12 16.5836L4.94658 21.7082L7.64074 13.4164L0.587322 8.2918H9.30583L12 0Z" fill="#FFBB36"/>
</svg>
