<svg width="224" height="224" viewBox="0 0 224 224" fill="none" xmlns="http://www.w3.org/2000/svg">
<path fill-rule="evenodd" clip-rule="evenodd" d="M27 24C21.4772 24 17 28.4771 17 34V155.282C17 160.805 21.4771 165.282 27 165.282H48.0975L56.1201 193.312C57.8533 199.367 65.5799 201.137 69.7767 196.441L97.6188 165.282H197C202.523 165.282 207 160.805 207 155.282V34C207 28.4772 202.523 24 197 24H27Z" fill="#0376c9"/>
<path d="M112 76.2944L118.682 89.833L133.622 92.004L122.811 102.542L125.363 117.423L112 110.397L98.6366 117.423L101.189 102.542L90.3776 92.004L105.318 89.833L112 76.2944Z" fill="white"/>
<path d="M55.9743 76.2944L62.656 89.833L77.5966 92.004L66.7855 102.542L69.3376 117.423L55.9743 110.397L42.611 117.423L45.1631 102.542L34.352 92.004L49.2926 89.833L55.9743 76.2944Z" fill="white"/>
<path d="M168.026 76.2944L174.707 89.833L189.648 92.004L178.837 102.542L181.389 117.423L168.026 110.397L154.662 117.423L157.214 102.542L146.403 92.004L161.344 89.833L168.026 76.2944Z" fill="white"/>
</svg>
