<svg width="203" height="224" viewBox="0 0 203 224" fill="none" xmlns="http://www.w3.org/2000/svg">
<g clip-path="url(#clip0_207_76)">
<path fill-rule="evenodd" clip-rule="evenodd" d="M0 46C0 40.4771 4.47715 36 10 36H193.017C198.54 36 203.017 40.4772 203.017 46V176.961C203.017 182.484 198.54 186.961 193.017 186.961H86.1421L55.7304 220.996C51.5336 225.692 43.807 223.922 42.0738 217.867L33.2282 186.961H9.99999C4.47714 186.961 0 182.484 0 176.961V46ZM108.648 106.343L101.508 91.8771L94.3688 106.343L78.4045 108.663L89.9563 119.923L87.2293 135.823L101.508 128.316L115.787 135.823L113.06 119.923L124.612 108.663L108.648 106.343ZM41.6444 91.8771L48.7839 106.343L64.7481 108.663L53.1963 119.923L55.9233 135.823L41.6444 128.316L27.3656 135.823L30.0926 119.923L18.5408 108.663L34.505 106.343L41.6444 91.8771ZM168.512 106.343L161.372 91.8771L154.233 106.343L138.269 108.663L149.82 119.923L147.093 135.823L161.372 128.316L175.651 135.823L172.924 119.923L184.476 108.663L168.512 106.343Z" fill="white"/>
</g>
<defs>
<clipPath id="clip0_207_76">
<rect width="203" height="224" fill="white"/>
</clipPath>
</defs>
</svg>
