<svg width="203" height="224" viewBox="0 0 203 224" fill="none" xmlns="http://www.w3.org/2000/svg">
<g clip-path="url(#clip0_205_92)">
<path fill-rule="evenodd" clip-rule="evenodd" d="M10 36C4.47715 36 0 40.4771 0 46V176.961C0 182.484 4.47714 186.961 9.99999 186.961H33.2282L42.0738 217.867C43.807 223.922 51.5336 225.692 55.7304 220.996L86.1421 186.961H193.017C198.54 186.961 203.017 182.484 203.017 176.961V46C203.017 40.4772 198.54 36 193.017 36H10Z" fill="#0376C9"/>
<path d="M101.508 91.8771L108.648 106.343L124.612 108.663L113.06 119.923L115.787 135.823L101.508 128.316L87.2294 135.823L89.9564 119.923L78.4045 108.663L94.3688 106.343L101.508 91.8771Z" fill="white"/>
<path d="M41.6444 91.8771L48.7839 106.343L64.7481 108.663L53.1963 119.923L55.9233 135.823L41.6444 128.316L27.3656 135.823L30.0926 119.923L18.5408 108.663L34.505 106.343L41.6444 91.8771Z" fill="white"/>
<path d="M161.372 91.8771L168.512 106.343L184.476 108.663L172.924 119.923L175.651 135.823L161.372 128.316L147.093 135.823L149.82 119.923L138.269 108.663L154.233 106.343L161.372 91.8771Z" fill="white"/>
</g>
<defs>
<clipPath id="clip0_205_92">
<rect width="203" height="224" fill="white"/>
</clipPath>
</defs>
</svg>
