<svg width="20" height="20" viewBox="0 0 20 20" fill="none" xmlns="http://www.w3.org/2000/svg">
<circle cx="10" cy="10" r="10" fill="#FF5000"/>
<circle cx="10" cy="10" r="8" stroke="#1B2028" stroke-width="2"/>
<path d="M10.5479 15.044H9.37188V13.904C8.98788 13.904 8.61588 13.856 8.25587 13.76C7.89588 13.664 7.58788 13.54 7.33188 13.388L7.69188 11.984C7.98788 12.144 8.29988 12.272 8.62788 12.368C8.95588 12.464 9.30788 12.512 9.68388 12.512C10.0279 12.512 10.3039 12.448 10.5119 12.32C10.7279 12.184 10.8359 12 10.8359 11.768C10.8359 11.36 10.4119 11.012 9.56388 10.724C8.85988 10.484 8.33988 10.212 8.00388 9.908C7.60388 9.54 7.40388 9.08 7.40388 8.528C7.40388 7.992 7.57988 7.536 7.93188 7.16C8.29188 6.776 8.79188 6.52 9.43188 6.392V5.252H10.6079V6.308C10.9759 6.308 11.3159 6.348 11.6279 6.428C11.8439 6.484 12.0839 6.576 12.3479 6.704L11.9999 8.06C11.6879 7.932 11.4719 7.848 11.3519 7.808C11.0079 7.704 10.6479 7.652 10.2719 7.652C9.91188 7.652 9.64788 7.716 9.47988 7.844C9.31988 7.972 9.23988 8.132 9.23988 8.324C9.23988 8.516 9.34388 8.688 9.55188 8.84C9.76788 8.992 10.1439 9.164 10.6799 9.356C11.3919 9.612 11.9039 9.916 12.2159 10.268C12.5279 10.612 12.6839 11.056 12.6839 11.6C12.6839 12.144 12.4959 12.62 12.1199 13.028C11.7439 13.436 11.2199 13.7 10.5479 13.82V15.044Z" fill="#1B2028"/>
</svg>
