<svg width="21" height="20" viewBox="0 0 21 20" fill="none" xmlns="http://www.w3.org/2000/svg">
<path d="M9.82369 0.000915614L19.2983 0.45996C19.6996 0.479405 20.0206 0.800394 20.04 1.20173L20.4991 10.6763C20.5097 10.8962 20.4271 11.1103 20.2714 11.2659L11.7659 19.7714C11.4612 20.0762 10.967 20.0762 10.6622 19.7714L0.728591 9.83779C0.423803 9.533 0.423802 9.03885 0.728591 8.73406L9.23406 0.228592C9.3897 0.0729468 9.60384 -0.00973663 9.82369 0.000915614Z" fill="#FF5000"/>
<path d="M15.4499 6.79055C14.9694 7.27105 14.1903 7.27105 13.7098 6.79055C13.2293 6.31005 13.2293 5.53101 13.7098 5.05051C14.1903 4.57 14.9694 4.57 15.4499 5.05051C15.9304 5.53101 15.9304 6.31005 15.4499 6.79055Z" fill="#1B2028"/>
</svg>
