<svg width="158" height="56" viewBox="0 0 158 56" fill="none" xmlns="http://www.w3.org/2000/svg">
<path d="M14.8872 34.6953L9.94205 22.6764H6.63614V34.6953H0V1.80786H10.5893C13.9195 1.80786 16.4946 2.66928 18.3101 4.39061C20.1211 6.11801 21.0266 8.56858 21.0266 11.7423C21.0266 16.1102 19.4374 19.17 16.2576 20.9187L22.0187 34.3763V34.6953H14.8857H14.8872ZM6.63614 7.34253V17.1418H10.413C11.7363 17.1418 12.7284 16.7012 13.3908 15.8215C14.0577 14.9419 14.392 13.7629 14.392 12.2892C14.392 8.99245 13.1021 7.34405 10.5224 7.34405H6.63614V7.34253Z" fill="white"/>
<path d="M35.6662 35.1496C32.3861 35.1496 29.8262 34.1712 27.9863 32.2144C26.1465 30.2515 25.2274 27.4515 25.2274 23.8113V21.8682C25.2274 18.0108 26.0705 15.0361 27.7584 12.944C29.4463 10.852 31.8635 9.80676 35.0084 9.80676C38.0818 9.80676 40.3941 10.7882 41.9468 12.7511C43.495 14.714 44.285 17.6234 44.3184 21.4823V24.6196H31.6007C31.6903 26.4305 32.0883 27.7538 32.7948 28.5894C33.5013 29.425 34.5951 29.8428 36.0749 29.8428C38.211 29.8428 39.9946 29.1105 41.4242 27.6475L43.931 31.5079C43.1455 32.5957 42.0106 33.4738 40.5248 34.1408C39.0329 34.8138 37.4134 35.1496 35.6632 35.1496H35.6662ZM31.6462 20.1529H38.0393V19.5635C38.0119 18.1004 37.7704 16.9929 37.3161 16.2408C36.8679 15.4888 36.0855 15.1135 34.9689 15.1135C33.8522 15.1135 33.0424 15.5116 32.538 16.3077C32.0336 17.1038 31.7359 18.3845 31.6462 20.1514V20.1529Z" fill="white"/>
<path d="M66.1472 21.373V23.2401C66.1472 27.0808 65.4878 30.0252 64.1706 32.0716C62.8534 34.1241 60.8905 35.1496 58.2835 35.1496C56.2932 35.1496 54.698 34.3429 53.4978 32.7279V44.092H47.1047V10.2535H53.0177L53.2441 12.4914C54.4671 10.7032 56.1322 9.80835 58.2409 9.80835C60.8434 9.80835 62.8033 10.7564 64.1205 12.6509C65.4377 14.5469 66.1137 17.4533 66.1472 21.373ZM59.7708 23.2401V21.6419C59.7708 19.2749 59.5125 17.6052 58.9975 16.6283C58.4764 15.6469 57.5983 15.1562 56.3646 15.1562C55.052 15.1562 54.0964 15.7061 53.4963 16.8046V28.2598C54.0675 29.3142 55.0383 29.8413 56.4072 29.8413C57.6742 29.8413 58.5524 29.3066 59.0401 28.2355C59.5277 27.1644 59.7723 25.4993 59.7723 23.2386L59.7708 23.2401Z" fill="white"/>
<path d="M75.3843 0V34.6954H68.9745V0H75.3843Z" fill="white"/>
<path d="M126.517 29.8428C128.367 29.8428 129.306 28.6365 129.335 26.2254H135.348C135.315 28.8887 134.493 31.0415 132.884 32.6853C131.275 34.3276 129.196 35.1496 126.652 35.1496C123.501 35.1496 121.097 34.1712 119.443 32.2144C117.788 30.2515 116.945 27.3664 116.912 23.5591V21.616C116.912 17.7753 117.731 14.8446 119.368 12.8271C121 10.814 123.411 9.80676 126.602 9.80676C129.298 9.80676 131.424 10.6363 132.978 12.2968C134.526 13.9619 135.316 16.3229 135.35 19.3796H129.336C129.326 18.0108 129.101 16.9579 128.663 16.2165C128.226 15.4812 127.503 15.1151 126.494 15.1151C125.379 15.1151 124.579 15.5101 124.096 16.3016C123.615 17.0916 123.359 18.623 123.331 20.8943V23.3844C123.331 25.3701 123.429 26.7572 123.625 27.5472C123.821 28.3372 124.143 28.9176 124.593 29.2883C125.047 29.659 125.69 29.8428 126.52 29.8428H126.517Z" fill="white"/>
<path d="M148.376 35.1496C145.096 35.1496 142.536 34.1712 140.696 32.2144C138.856 30.2515 137.937 27.4515 137.937 23.8113V21.8682C137.937 18.0108 138.78 15.0361 140.468 12.944C142.156 10.852 144.573 9.80676 147.718 9.80676C150.791 9.80676 153.104 10.7882 154.656 12.7511C156.204 14.714 156.994 17.6234 157.028 21.4823V24.6196H144.31C144.4 26.4305 144.798 27.7538 145.504 28.5894C146.211 29.425 147.305 29.8428 148.784 29.8428C150.92 29.8428 152.704 29.1105 154.134 27.6475L156.64 31.5079C155.855 32.5957 154.72 33.4738 153.234 34.1408C151.742 34.8138 150.123 35.1496 148.373 35.1496H148.376ZM144.356 20.1529H150.749V19.5635C150.721 18.1004 150.48 16.9929 150.026 16.2408C149.577 15.4888 148.795 15.1135 147.678 15.1135C146.562 15.1135 145.752 15.5116 145.248 16.3077C144.743 17.1038 144.445 18.3845 144.356 20.1514V20.1529Z" fill="white"/>
<path d="M34.0831 52.1487H4.20532V52.9904H34.0831V52.1487Z" fill="white"/>
<path d="M152.824 52.1487H122.946V52.9904H152.824V52.1487Z" fill="white"/>
<path d="M36.6066 55.88V49.2606H38.5756C38.9113 49.2606 39.2198 49.2909 39.5008 49.3532C39.7819 49.4094 40.0189 49.5021 40.2164 49.6313C40.4124 49.7604 40.5673 49.929 40.6783 50.1356C40.7907 50.3377 40.8469 50.5838 40.8469 50.8755C40.8469 51.2067 40.7512 51.503 40.5613 51.7673C40.3759 52.0302 40.0873 52.2125 39.6953 52.3143V52.3568C40.183 52.4297 40.5613 52.5984 40.8302 52.8612C41.0991 53.124 41.2343 53.4871 41.2343 53.946C41.2343 54.265 41.172 54.5461 41.049 54.7876C40.9259 55.0337 40.7542 55.2358 40.5354 55.3938C40.3106 55.5564 40.0447 55.6794 39.7363 55.7645C39.4279 55.8435 39.0891 55.883 38.7184 55.883H36.6066V55.88ZM37.4483 52.0864H38.4237C38.9949 52.0864 39.4051 51.9876 39.6512 51.7916C39.8973 51.5957 40.0219 51.3116 40.0219 50.9424C40.0219 50.5778 39.8898 50.3164 39.6269 50.16C39.3686 50.0035 38.9828 49.9245 38.4662 49.9245H37.4483V52.0864ZM37.4483 55.2161H38.5923C39.1635 55.2161 39.6102 55.1097 39.9293 54.897C40.2437 54.6843 40.4002 54.3531 40.4002 53.9049C40.4002 53.4963 40.2468 53.1924 39.9384 52.9964C39.63 52.8065 39.1818 52.7108 38.5923 52.7108H37.4483V55.2176V55.2161ZM43.378 49.9336V52.3978H44.4886C45.0097 52.3978 45.4077 52.2915 45.6827 52.0788C45.9577 51.8661 46.0944 51.5455 46.0944 51.1201C46.0944 50.6826 45.9577 50.3742 45.6827 50.1949C45.4077 50.0217 45.0097 49.9336 44.4886 49.9336H43.378ZM47.1214 55.88H46.1795L44.5812 53.0876H43.378V55.88H42.5454V49.2606H44.6147C44.9504 49.2606 45.2619 49.2909 45.549 49.3532C45.8346 49.4201 46.0792 49.5264 46.2813 49.6723C46.4894 49.8181 46.649 50.008 46.7614 50.2435C46.8799 50.479 46.9376 50.7707 46.9376 51.1186C46.9376 51.6352 46.8024 52.0469 46.5335 52.3553C46.2646 52.6637 45.903 52.8764 45.4487 52.9949L47.123 55.88H47.1214ZM49.1314 53.1878H51.1247L50.8057 52.1791C50.6871 51.8084 50.5762 51.4392 50.4699 51.0685C50.3575 50.7039 50.2481 50.3286 50.1417 49.9412H50.0992C49.9989 50.3286 49.8941 50.7039 49.7877 51.0685C49.6814 51.4392 49.5659 51.8084 49.4429 52.1791L49.1314 53.1878ZM51.9572 55.88L51.3344 53.8609H48.9202L48.2806 55.88H47.4223L49.6677 49.2606H50.6188L52.8567 55.88H51.9572ZM53.7986 55.88V49.2606H54.6646L57.0529 53.4157L57.7684 54.7861H57.811C57.7943 54.4503 57.7715 54.1024 57.7441 53.7424C57.7213 53.3838 57.7107 53.0298 57.7107 52.6819V49.259H58.5098V55.8785H57.6439L55.2389 51.7066L54.5233 50.3438H54.4807C54.5081 50.6795 54.5339 51.0229 54.5567 51.3693C54.5795 51.7172 54.5901 52.0651 54.5901 52.413V55.8785H53.8001L53.7986 55.88ZM60.3253 55.88V49.2606H61.9829C63.0038 49.2606 63.7801 49.5431 64.3134 50.1098C64.8467 50.6704 65.1125 51.4802 65.1125 52.5406C65.1125 53.0617 65.0457 53.5297 64.9105 53.946C64.7753 54.3607 64.5762 54.7117 64.3134 54.9973C64.0506 55.2829 63.727 55.5017 63.3456 55.6536C62.9582 55.8055 62.5192 55.88 62.0254 55.88H60.3269H60.3253ZM61.167 55.1902H61.9236C62.6969 55.1902 63.2773 54.9608 63.6647 54.5005C64.0521 54.0356 64.245 53.3823 64.245 52.5406C64.245 51.699 64.0521 51.0578 63.6647 50.6142C63.2773 50.166 62.6969 49.9412 61.9236 49.9412H61.167V55.1902ZM68.5689 55.88V49.2606H69.444L71.8322 53.4157L72.5478 54.7861H72.5903C72.5676 54.4503 72.5448 54.1024 72.5235 53.7424C72.5007 53.3838 72.4901 53.0298 72.4901 52.6819V49.259H73.2892V55.8785H72.4232L70.0182 51.7066L69.3027 50.3438H69.2601C69.2875 50.6795 69.3133 51.0229 69.3361 51.3693C69.3589 51.7172 69.3695 52.0651 69.3695 52.413V55.8785H68.5704L68.5689 55.88ZM75.1047 55.88V49.2606H78.915V49.967H75.9373V52.0438H78.4517V52.7594H75.9373V55.1644H79.0153V55.88H75.1047ZM81.1529 55.88L79.7476 49.2606H80.6136L81.3124 52.8612C81.3747 53.2258 81.4385 53.5813 81.5054 53.9292C81.5722 54.2832 81.6345 54.6418 81.6907 55.0064H81.7333C81.8062 54.6418 81.8852 54.2832 81.9688 53.9292C82.0478 53.5753 82.1222 53.2198 82.1951 52.8612L83.1203 49.2606H83.8861L84.8022 52.8612C84.8812 53.2152 84.9617 53.5677 85.0468 53.9217C85.1258 54.2802 85.2063 54.6418 85.2914 55.0064H85.3248C85.3871 54.6418 85.4479 54.2832 85.5102 53.9292C85.5724 53.5753 85.6362 53.2198 85.7031 52.8612L86.402 49.2606H87.2087L85.8292 55.88H84.8204L83.8283 51.8934C83.766 51.6352 83.7098 51.386 83.6597 51.1444C83.6095 50.8983 83.5564 50.6461 83.5002 50.3878H83.4576C83.4075 50.6461 83.3543 50.8983 83.2981 51.1444C83.2358 51.386 83.1796 51.6352 83.1295 51.8934L82.145 55.88H81.1529ZM90.3961 55.88V49.2606H91.2286V52.0362H94.3067V49.2606H95.1559V55.88H94.3067V52.7594H91.2286V55.88H90.3961ZM99.4205 55.9985C98.9997 55.9985 98.6153 55.9195 98.2689 55.763C97.9271 55.6004 97.6293 55.368 97.3771 55.0641C97.131 54.7664 96.9365 54.4048 96.7967 53.9794C96.6615 53.5525 96.5947 53.0739 96.5947 52.5406C96.5947 52.0074 96.6615 51.5319 96.7967 51.111C96.9365 50.6902 97.131 50.3347 97.3771 50.043C97.6293 49.7513 97.9271 49.5264 98.2689 49.3699C98.6168 49.2135 99.0012 49.1345 99.4205 49.1345C99.8353 49.1345 100.217 49.2165 100.565 49.3791C100.912 49.5355 101.212 49.7604 101.464 50.0521C101.716 50.3438 101.909 50.6993 102.044 51.1201C102.184 51.541 102.254 52.015 102.254 52.5422C102.254 53.0754 102.184 53.554 102.044 53.9809C101.909 54.4078 101.716 54.7694 101.464 55.0657C101.212 55.368 100.911 55.6004 100.565 55.7645C100.217 55.921 99.8353 56 99.4205 56V55.9985ZM99.4205 55.2662C99.7122 55.2662 99.9781 55.2024 100.22 55.0732C100.461 54.9441 100.665 54.7618 100.833 54.5263C101.007 54.2848 101.142 53.9991 101.238 53.6679C101.327 53.3322 101.373 52.9554 101.373 52.5406C101.373 52.132 101.327 51.7613 101.238 51.4301C101.142 51.0989 101.008 50.8193 100.833 50.5884C100.665 50.359 100.461 50.1812 100.22 50.0582C99.9781 49.9351 99.7122 49.8728 99.4205 49.8728C99.1227 49.8728 98.8538 49.9351 98.6138 50.0582C98.3783 50.1812 98.1732 50.3575 98 50.5884C97.8268 50.8178 97.6946 51.0989 97.605 51.4301C97.5093 51.7613 97.4622 52.1304 97.4622 52.5406C97.4622 52.9554 97.5093 53.3307 97.605 53.6679C97.6946 53.9991 97.8268 54.2848 98 54.5263C98.1732 54.7618 98.3783 54.9441 98.6138 55.0732C98.8553 55.2024 99.1243 55.2662 99.4205 55.2662ZM103.676 55.88V49.2606H104.668L105.947 52.8096L106.435 54.1632H106.468L106.939 52.8096L108.209 49.2606H109.194V55.88H108.404V52.2383C108.404 51.9405 108.415 51.6124 108.437 51.2538C108.46 50.8998 108.484 50.5747 108.513 50.2785H108.471L107.933 51.7506L106.663 55.2161H106.192L104.905 51.7506L104.384 50.2785H104.341C104.364 50.5762 104.388 50.9014 104.417 51.2538C104.44 51.6124 104.451 51.9405 104.451 52.2383V55.88H103.677H103.676ZM111.011 55.88V49.2606H114.829V49.967H111.851V52.0438H114.365V52.7594H111.851V55.1644H114.929V55.88H111.009H111.011ZM115.847 55.0216L116.351 54.4321C116.587 54.6843 116.865 54.8864 117.184 55.0383C117.503 55.1902 117.834 55.2647 118.176 55.2647C118.613 55.2647 118.955 55.1644 119.201 54.9623C119.443 54.7664 119.563 54.505 119.563 54.1799C119.563 54.0113 119.536 53.8685 119.479 53.7515C119.417 53.633 119.34 53.5327 119.244 53.4492C119.148 53.3656 119.034 53.2896 118.899 53.2228C118.764 53.1559 118.618 53.0861 118.461 53.0131L117.51 52.6014C117.358 52.5346 117.202 52.4525 117.039 52.3568C116.877 52.2611 116.731 52.1472 116.602 52.0119C116.473 51.8767 116.369 51.7172 116.29 51.5319C116.211 51.3465 116.172 51.1338 116.172 50.8922C116.172 50.6461 116.222 50.4122 116.324 50.1934C116.43 49.9807 116.576 49.7953 116.761 49.6389C116.947 49.4824 117.165 49.3578 117.418 49.2682C117.67 49.1785 117.948 49.1329 118.25 49.1329C118.648 49.1329 119.016 49.2089 119.352 49.3593C119.687 49.5112 119.975 49.7103 120.21 49.9564L119.756 50.4942C119.554 50.3043 119.329 50.1524 119.083 50.0399C118.837 49.9275 118.559 49.8713 118.25 49.8713C117.88 49.8713 117.583 49.9579 117.358 50.1326C117.129 50.3012 117.014 50.5367 117.014 50.8391C117.014 51.0016 117.047 51.1384 117.114 51.2508C117.176 51.3632 117.26 51.4604 117.366 51.5455C117.478 51.6291 117.595 51.702 117.72 51.7643C117.849 51.8266 117.981 51.8843 118.115 51.9405L119.057 52.3447C119.242 52.4237 119.419 52.5163 119.587 52.6227C119.756 52.729 119.902 52.8491 120.025 52.9843C120.148 53.124 120.244 53.2866 120.31 53.4719C120.383 53.6573 120.42 53.87 120.42 54.1116C120.42 54.3744 120.367 54.622 120.26 54.8514C120.16 55.0763 120.011 55.2753 119.815 55.4485C119.619 55.6217 119.384 55.7569 119.109 55.8526C118.834 55.9483 118.519 55.9954 118.167 55.9954C117.702 55.9954 117.272 55.9088 116.88 55.7341C116.482 55.5609 116.137 55.3224 115.845 55.0186L115.847 55.0216Z" fill="white"/>
<path d="M96.0736 3.64624L91.2514 12.1465H100.893L96.0736 3.64624ZM90.2837 13.845L86.9094 19.796H95.2228V13.845H90.2837ZM96.9243 13.845V19.796H105.239L101.865 13.845H96.9243ZM85.9401 21.4976L82.5658 27.4485H86.7225V21.4976H85.9386H85.9401ZM88.4241 21.4976V27.4485H103.726V21.4976H88.4241ZM105.425 21.4976V27.4485H109.581L106.207 21.4976H105.423H105.425ZM81.598 29.1471L78.2238 35.098H95.2228V29.1471H81.598ZM96.9243 29.1471V35.098H113.923L110.549 29.1471H96.9228H96.9243Z" fill="#26AE61"/>
</svg>
