<svg width="188" height="67" viewBox="0 0 188 67" fill="none" xmlns="http://www.w3.org/2000/svg">
<path d="M17.8115 41.5106L11.895 27.1309H7.93966V41.5106H0V2.16309H12.6693C16.6537 2.16309 19.7346 3.19372 21.9068 5.25316C24.0735 7.31987 25.1568 10.2518 25.1568 14.049C25.1568 19.2748 23.2555 22.9356 19.4511 25.0278L26.3438 41.1289V41.5106H17.8097H17.8115ZM7.93966 8.78493V20.509H12.4584C14.0416 20.509 15.2286 19.9819 16.0211 18.9294C16.8191 17.877 17.219 16.4665 17.219 14.7033C17.219 10.7589 15.6757 8.78675 12.5893 8.78675H7.93966V8.78493Z" fill="#0A0A0A"/>
<path d="M42.6721 42.054C38.7477 42.054 35.6849 40.8834 33.4837 38.5422C31.2824 36.1938 30.1827 32.8438 30.1827 28.4886V26.1638C30.1827 21.5487 31.1916 17.9896 33.211 15.4867C35.2305 12.9837 38.1224 11.7332 41.885 11.7332C45.5622 11.7332 48.3287 12.9074 50.1864 15.2558C52.0386 17.6043 52.9838 21.0852 53.0238 25.7021V29.4556H37.8079C37.9152 31.6223 38.3914 33.2055 39.2366 34.2052C40.0819 35.205 41.3906 35.7048 43.161 35.7048C45.7167 35.7048 47.8507 34.8287 49.5611 33.0783L52.5603 37.697C51.6206 38.9985 50.2627 40.0491 48.485 40.8471C46.7001 41.6523 44.7624 42.054 42.6684 42.054H42.6721ZM37.8625 24.1116H45.5113V23.4064C45.4786 21.6559 45.1896 20.3308 44.6461 19.4311C44.1099 18.5313 43.1738 18.0823 41.8378 18.0823C40.5018 18.0823 39.5329 18.5586 38.9295 19.511C38.326 20.4635 37.9697 21.9958 37.8625 24.1098V24.1116Z" fill="#0A0A0A"/>
<path d="M79.1404 25.5714V27.8053C79.1404 32.4004 78.3515 35.9231 76.7756 38.3715C75.1996 40.8272 72.8512 42.0542 69.732 42.0542C67.3509 42.0542 65.4423 41.089 64.0063 39.1568V52.7531H56.3575V12.2677H63.4319L63.7028 14.9451C65.166 12.8057 67.1582 11.7351 69.6811 11.7351C72.7948 11.7351 75.1397 12.8693 76.7156 15.136C78.2915 17.4045 79.1004 20.8817 79.1404 25.5714ZM71.5116 27.8053V25.8931C71.5116 23.0611 71.2025 21.0635 70.5864 19.8947C69.9629 18.7205 68.9123 18.1334 67.4363 18.1334C65.8658 18.1334 64.7225 18.7914 64.0045 20.1056V33.8109C64.688 35.0724 65.8495 35.7032 67.4872 35.7032C69.0031 35.7032 70.0538 35.0633 70.6372 33.7819C71.2207 32.5004 71.5134 30.5082 71.5134 27.8035L71.5116 27.8053Z" fill="#0A0A0A"/>
<path d="M90.1919 0V41.5106H82.5231V0H90.1919Z" fill="#0A0A0A"/>
<path d="M151.368 35.7048C153.582 35.7048 154.705 34.2616 154.74 31.3769H161.934C161.894 34.5633 160.911 37.139 158.986 39.1057C157.061 41.0707 154.574 42.054 151.53 42.054C147.76 42.054 144.884 40.8834 142.905 38.5422C140.925 36.1938 139.917 32.742 139.877 28.1869V25.8621C139.877 21.2669 140.856 17.7606 142.816 15.3467C144.768 12.9383 147.653 11.7332 151.47 11.7332C154.696 11.7332 157.239 12.7256 159.099 14.7123C160.951 16.7045 161.896 19.5292 161.936 23.1864H154.742C154.729 21.5487 154.46 20.289 153.936 19.402C153.413 18.5222 152.548 18.0842 151.341 18.0842C150.007 18.0842 149.05 18.5568 148.472 19.5038C147.896 20.449 147.591 22.2812 147.556 24.9986V27.9778C147.556 30.3536 147.674 32.0131 147.909 32.9583C148.143 33.9035 148.529 34.5979 149.067 35.0414C149.61 35.4849 150.379 35.7048 151.372 35.7048H151.368Z" fill="#0A0A0A"/>
<path d="M177.521 42.054C173.597 42.054 170.534 40.8834 168.333 38.5422C166.131 36.1938 165.032 32.8438 165.032 28.4886V26.1638C165.032 21.5487 166.04 17.9896 168.06 15.4867C170.079 12.9837 172.971 11.7332 176.734 11.7332C180.411 11.7332 183.178 12.9074 185.035 15.2558C186.888 17.6043 187.833 21.0852 187.873 25.7021V29.4556H172.657C172.764 31.6223 173.24 33.2055 174.086 34.2052C174.931 35.205 176.239 35.7048 178.01 35.7048C180.566 35.7048 182.7 34.8287 184.41 33.0783L187.409 37.697C186.469 38.9985 185.112 40.0491 183.334 40.8471C181.549 41.6523 179.611 42.054 177.517 42.054H177.521ZM172.711 24.1116H180.36V23.4064C180.327 21.6559 180.038 20.3308 179.495 19.4311C178.959 18.5313 178.023 18.0823 176.687 18.0823C175.351 18.0823 174.382 18.5586 173.778 19.511C173.175 20.4635 172.819 21.9958 172.711 24.1098V24.1116Z" fill="#0A0A0A"/>
<path d="M40.778 62.3921H5.03137V63.3991H40.778V62.3921Z" fill="#0A0A0A"/>
<path d="M182.843 62.3921H147.096V63.3991H182.843V62.3921Z" fill="#0A0A0A"/>
<path d="M43.7972 66.8565V58.9369H46.1529C46.5546 58.9369 46.9236 58.9732 47.2599 59.0477C47.5962 59.115 47.8797 59.2259 48.116 59.3804C48.3505 59.5349 48.5359 59.7366 48.6686 59.9839C48.8031 60.2256 48.8703 60.5201 48.8703 60.8691C48.8703 61.2653 48.7558 61.6198 48.5286 61.9361C48.3069 62.2505 47.9615 62.4686 47.4925 62.5904V62.6413C48.076 62.7286 48.5286 62.9303 48.8504 63.2448C49.1721 63.5593 49.3339 63.9937 49.3339 64.5426C49.3339 64.9243 49.2593 65.2606 49.1121 65.5496C48.9649 65.8441 48.7595 66.0858 48.4977 66.2749C48.2287 66.4694 47.9106 66.6166 47.5416 66.7184C47.1726 66.8129 46.7673 66.8602 46.3238 66.8602H43.7972V66.8565ZM44.8042 62.3178H45.9711C46.6546 62.3178 47.1454 62.1996 47.4398 61.9651C47.7343 61.7307 47.8833 61.3907 47.8833 60.949C47.8833 60.5128 47.7252 60.2002 47.4107 60.0129C47.1017 59.8257 46.64 59.7312 46.022 59.7312H44.8042V62.3178ZM44.8042 66.0622H46.1729C46.8564 66.0622 47.3908 65.935 47.7725 65.6805C48.1487 65.426 48.336 65.0298 48.336 64.4935C48.336 64.0046 48.1524 63.641 47.7834 63.4066C47.4144 63.1794 46.8782 63.0648 46.1729 63.0648H44.8042V66.064V66.0622ZM51.8986 59.7421V62.6904H53.2273C53.8508 62.6904 54.3271 62.5632 54.6561 62.3087C54.9851 62.0542 55.1486 61.6707 55.1486 61.1617C55.1486 60.6382 54.9851 60.2692 54.6561 60.0547C54.3271 59.8475 53.8508 59.7421 53.2273 59.7421H51.8986ZM56.3774 66.8565H55.2504L53.3382 63.5156H51.8986V66.8565H50.9025V58.9369H53.3782C53.7799 58.9369 54.1526 58.9732 54.4961 59.0477C54.8378 59.1277 55.1305 59.255 55.3722 59.4295C55.6212 59.604 55.8121 59.8312 55.9466 60.1129C56.0884 60.3947 56.1575 60.7436 56.1575 61.1599C56.1575 61.7779 55.9957 62.2705 55.674 62.6395C55.3522 63.0085 54.9196 63.263 54.3761 63.4047L56.3792 66.8565H56.3774ZM58.7822 63.6356H61.167L60.7853 62.4286C60.6435 61.9851 60.5108 61.5434 60.3836 61.0999C60.2491 60.6637 60.1182 60.2147 59.991 59.7512H59.9401C59.8201 60.2147 59.6947 60.6637 59.5674 61.0999C59.4402 61.5434 59.3021 61.9851 59.1548 62.4286L58.7822 63.6356ZM62.1631 66.8565L61.4179 64.4408H58.5295L57.7643 66.8565H56.7373L59.4239 58.9369H60.5617L63.2392 66.8565H62.1631ZM64.3661 66.8565V58.9369H65.4022L68.2596 63.9082L69.1158 65.5478H69.1667C69.1467 65.1461 69.1194 64.7298 69.0867 64.299C69.0594 63.8701 69.0467 63.4466 69.0467 63.0303V58.9351H70.0028V66.8547H68.9667L66.0893 61.8633L65.2332 60.2329H65.1823C65.215 60.6346 65.2459 61.0454 65.2732 61.4598C65.3004 61.8761 65.3132 62.2923 65.3132 62.7086V66.8547H64.368L64.3661 66.8565ZM72.1749 66.8565V58.9369H74.158C75.3795 58.9369 76.3084 59.275 76.9464 59.953C77.5844 60.6237 77.9025 61.5925 77.9025 62.8613C77.9025 63.4847 77.8225 64.0446 77.6607 64.5426C77.499 65.0388 77.2608 65.4587 76.9464 65.8005C76.6319 66.1422 76.2447 66.4039 75.7885 66.5857C75.325 66.7675 74.7997 66.8565 74.2089 66.8565H72.1768H72.1749ZM73.1819 66.0313H74.0871C75.0124 66.0313 75.7067 65.7568 76.1702 65.2061C76.6337 64.6499 76.8646 63.8683 76.8646 62.8613C76.8646 61.8543 76.6337 61.0872 76.1702 60.5564C75.7067 60.0202 75.0124 59.7512 74.0871 59.7512H73.1819V66.0313ZM82.0377 66.8565V58.9369H83.0847L85.9421 63.9082L86.7982 65.5478H86.8491C86.8219 65.1461 86.7946 64.7298 86.7692 64.299C86.7419 63.8701 86.7292 63.4466 86.7292 63.0303V58.9351H87.6853V66.8547H86.6492L83.7718 61.8633L82.9157 60.2329H82.8648C82.8975 60.6346 82.9284 61.0454 82.9557 61.4598C82.9829 61.8761 82.9956 62.2923 82.9956 62.7086V66.8547H82.0395L82.0377 66.8565ZM89.8574 66.8565V58.9369H94.4162V59.7821H90.8535V62.2669H93.8618V63.123H90.8535V66.0004H94.5362V66.8565H89.8574ZM97.0936 66.8565L95.4123 58.9369H96.4484L97.2845 63.2448C97.359 63.681 97.4354 64.1064 97.5153 64.5226C97.5953 64.9461 97.6698 65.3751 97.7371 65.8114H97.788C97.8752 65.3751 97.9698 64.9461 98.0697 64.5226C98.1643 64.0991 98.2533 63.6738 98.3406 63.2448L99.4475 58.9369H100.364L101.46 63.2448C101.554 63.6683 101.651 64.09 101.752 64.5135C101.847 64.9425 101.943 65.3751 102.045 65.8114H102.085C102.16 65.3751 102.232 64.9461 102.307 64.5226C102.381 64.0991 102.458 63.6738 102.538 63.2448L103.374 58.9369H104.339L102.688 66.8565H101.482L100.295 62.0869C100.22 61.7779 100.153 61.4798 100.093 61.1908C100.033 60.8963 99.9692 60.5946 99.902 60.2856H99.8511C99.7911 60.5946 99.7275 60.8963 99.6602 61.1908C99.5857 61.4798 99.5184 61.7779 99.4584 62.0869L98.2806 66.8565H97.0936ZM108.152 66.8565V58.9369H109.149V62.2578H112.831V58.9369H113.847V66.8565H112.831V63.123H109.149V66.8565H108.152ZM118.95 66.9983C118.446 66.9983 117.986 66.9038 117.572 66.7166C117.163 66.5221 116.806 66.244 116.505 65.8804C116.21 65.5242 115.978 65.0916 115.81 64.5826C115.649 64.0718 115.569 63.4993 115.569 62.8613C115.569 62.2232 115.649 61.6543 115.81 61.1508C115.978 60.6473 116.21 60.222 116.505 59.873C116.806 59.524 117.163 59.255 117.572 59.0677C117.988 58.8805 118.448 58.786 118.95 58.786C119.446 58.786 119.902 58.8842 120.318 59.0786C120.734 59.2659 121.093 59.5349 121.394 59.8839C121.696 60.2329 121.927 60.6582 122.089 61.1617C122.256 61.6652 122.34 62.2323 122.34 62.8631C122.34 63.5011 122.256 64.0737 122.089 64.5844C121.927 65.0952 121.696 65.5278 121.394 65.8823C121.093 66.244 120.733 66.5221 120.318 66.7184C119.902 66.9056 119.446 67.0001 118.95 67.0001V66.9983ZM118.95 66.1222C119.299 66.1222 119.617 66.0458 119.906 65.8913C120.195 65.7368 120.438 65.5187 120.64 65.237C120.847 64.948 121.009 64.6062 121.123 64.21C121.231 63.8083 121.285 63.3575 121.285 62.8613C121.285 62.3723 121.231 61.9288 121.123 61.5325C121.009 61.1363 120.849 60.8018 120.64 60.5255C120.438 60.2511 120.195 60.0384 119.906 59.8912C119.617 59.7439 119.299 59.6694 118.95 59.6694C118.593 59.6694 118.272 59.7439 117.984 59.8912C117.703 60.0384 117.457 60.2492 117.25 60.5255C117.043 60.8 116.885 61.1363 116.777 61.5325C116.663 61.9288 116.607 62.3705 116.607 62.8613C116.607 63.3575 116.663 63.8065 116.777 64.21C116.885 64.6062 117.043 64.948 117.25 65.237C117.457 65.5187 117.703 65.7368 117.984 65.8913C118.273 66.0458 118.595 66.1222 118.95 66.1222ZM124.041 66.8565V58.9369H125.228L126.758 63.183L127.342 64.8026H127.382L127.945 63.183L129.465 58.9369H130.643V66.8565H129.698V62.4995C129.698 62.1433 129.71 61.7506 129.738 61.3217C129.765 60.8982 129.794 60.5092 129.828 60.1547H129.777L129.134 61.9161L127.614 66.0622H127.051L125.511 61.9161L124.888 60.1547H124.837C124.864 60.511 124.893 60.9 124.928 61.3217C124.955 61.7506 124.968 62.1433 124.968 62.4995V66.8565H124.043H124.041ZM132.817 66.8565V58.9369H137.385V59.7821H133.822V62.2669H136.83V63.123H133.822V66.0004H137.504V66.8565H132.815H132.817ZM138.602 65.8295L139.206 65.1243C139.488 65.426 139.82 65.6678 140.202 65.8495C140.584 66.0313 140.98 66.1204 141.389 66.1204C141.912 66.1204 142.321 66.0004 142.616 65.7587C142.905 65.5242 143.048 65.2115 143.048 64.8225C143.048 64.6208 143.016 64.4499 142.948 64.31C142.874 64.1682 142.781 64.0482 142.667 63.9482C142.552 63.8483 142.416 63.7574 142.254 63.6774C142.092 63.5974 141.918 63.5138 141.731 63.4266L140.593 62.934C140.411 62.854 140.224 62.7558 140.029 62.6413C139.835 62.5268 139.66 62.3905 139.506 62.2287C139.351 62.0669 139.228 61.8761 139.133 61.6543C139.039 61.4326 138.991 61.1781 138.991 60.8891C138.991 60.5946 139.051 60.3147 139.173 60.0529C139.3 59.7985 139.475 59.5767 139.697 59.3895C139.918 59.2023 140.18 59.0532 140.482 58.946C140.784 58.8387 141.116 58.7842 141.478 58.7842C141.954 58.7842 142.394 58.8751 142.796 59.055C143.198 59.2368 143.541 59.4749 143.823 59.7694L143.279 60.4128C143.038 60.1856 142.769 60.0038 142.474 59.8693C142.18 59.7348 141.847 59.6676 141.478 59.6676C141.034 59.6676 140.68 59.7712 140.411 59.9802C140.137 60.182 139.998 60.4637 139.998 60.8254C139.998 61.0199 140.038 61.1835 140.118 61.318C140.193 61.4525 140.293 61.5689 140.42 61.6707C140.555 61.7706 140.695 61.8579 140.844 61.9324C140.998 62.0069 141.156 62.076 141.316 62.1433L142.443 62.6268C142.665 62.7213 142.876 62.8322 143.078 62.9594C143.279 63.0866 143.454 63.2302 143.601 63.392C143.748 63.5592 143.863 63.7537 143.943 63.9755C144.03 64.1973 144.074 64.4517 144.074 64.7408C144.074 65.0552 144.01 65.3515 143.883 65.626C143.763 65.895 143.585 66.1331 143.35 66.3403C143.116 66.5475 142.834 66.7093 142.505 66.8238C142.176 66.9383 141.8 66.9947 141.378 66.9947C140.822 66.9947 140.307 66.8911 139.838 66.682C139.362 66.4748 138.95 66.1894 138.601 65.8259L138.602 65.8295Z" fill="#0A0A0A"/>
<path d="M114.945 4.36255L109.176 14.5325H120.711L114.945 4.36255ZM108.018 16.5647L103.981 23.6846H113.927V16.5647H108.018ZM115.963 16.5647V23.6846H125.911L121.874 16.5647H115.963ZM102.821 25.7204L98.7841 32.8403H103.757V25.7204H102.819H102.821ZM105.793 25.7204V32.8403H124.101V25.7204H105.793ZM126.133 25.7204V32.8403H131.106L127.069 25.7204H126.131H126.133ZM97.6263 34.8725L93.5892 41.9923H113.927V34.8725H97.6263ZM115.963 34.8725V41.9923H136.301L132.264 34.8725H115.961H115.963Z" fill="#26AE61"/>
</svg>
