<svg id="Слой_1" data-name="Слой 1" xmlns="http://www.w3.org/2000/svg" xmlns:xlink="http://www.w3.org/1999/xlink" viewBox="0 0 2539 768"><defs><style>.cls-1{fill:#22457f;}.cls-2{opacity:0.75;fill:url(#Безымянный_градиент_43);}.cls-3{fill:#2c5c9b;}</style><linearGradient id="Безымянный_градиент_43" x1="147.24" y1="387.91" x2="778.55" y2="387.91" gradientUnits="userSpaceOnUse"><stop offset="0.01" stop-color="#2ba7d4"/><stop offset="0.2" stop-color="#2ba3d1"/><stop offset="0.41" stop-color="#2c95c8"/><stop offset="0.63" stop-color="#2d80ba"/><stop offset="0.85" stop-color="#2f61a6"/><stop offset="1" stop-color="#304996"/></linearGradient></defs><path class="cls-1" d="M485.79,117H440a291.47,291.47,0,0,0-109.48,21.32c4.86,1.61,9.69,3.32,14.48,5.2,8.18,3.74,16.75,6.74,24.5,11.56,3.92,2.29,8,4.32,11.81,6.83l11.28,7.85c14.5,11.24,27.45,25,36.88,41.23a128.83,128.83,0,0,1,16.23,53.1,168,168,0,0,1-5.07,54.4,247.32,247.32,0,0,1-48.36,94.58c16.86-30.88,30-63.6,36.3-97.2,6.18-33.38,4-68.54-12.86-97-8.06-14.32-19.44-26.67-32.39-37.28-12.9-10.82-28-18.88-43.27-26.71C308.93,140.16,275.13,130.66,241,122c0,0-59.67,94.13-83,208.9l.08,0a292.71,292.71,0,0,0-10.84,78.86V436a292,292,0,0,0,103,222.8h93.13c-19.56-15.16-38.5-37.77-38.5-68.61,0-63.8,87.45-110.39,87.45-110.39v179H502.53c3.18-18.53,15.72-32.37,30.73-32.37s27.55,13.84,30.73,32.37H675.6A292,292,0,0,0,778.55,436V409.75C778.55,248.07,647.48,117,485.79,117Z"/><path class="cls-2" d="M485.79,117H440a291.47,291.47,0,0,0-109.48,21.32c4.86,1.61,9.69,3.32,14.48,5.2,8.18,3.74,16.75,6.74,24.5,11.56,3.92,2.29,8,4.32,11.81,6.83l11.28,7.85c14.5,11.24,27.45,25,36.88,41.23a128.83,128.83,0,0,1,16.23,53.1,168,168,0,0,1-5.07,54.4,247.32,247.32,0,0,1-48.36,94.58c16.86-30.88,30-63.6,36.3-97.2,6.18-33.38,4-68.54-12.86-97-8.06-14.32-19.44-26.67-32.39-37.28-12.9-10.82-28-18.88-43.27-26.71C308.93,140.16,275.13,130.66,241,122c0,0-59.67,94.13-83,208.9l.08,0a292.71,292.71,0,0,0-10.84,78.86V436a292,292,0,0,0,103,222.8h93.13c-19.56-15.16-38.5-37.77-38.5-68.61,0-63.8,87.45-110.39,87.45-110.39v179H502.53c3.18-18.53,15.72-32.37,30.73-32.37s27.55,13.84,30.73,32.37H675.6A292,292,0,0,0,778.55,436V409.75C778.55,248.07,647.48,117,485.79,117Z"/><path class="cls-3" d="M959.41,268.46l4.26,29.23,6.24-26.34,43.84-154.65h24.66l42.78,154.65,6.08,26.79,4.73-29.83,34.39-151.61h29.38L1102,338.33H1075.4l-45.66-161.51-3.51-16.89-3.5,16.89L975.39,338.33H948.76L895.18,116.7H924.4Z"/><path class="cls-3" d="M1315,235.89h-96v78.54h111.58v23.9h-140.8V116.7H1329v23.9H1219V212h96Z"/><path class="cls-3" d="M1368.5,338.33V116.7H1441q36.08,0,54.27,14.91t18.19,44.15a45,45,0,0,1-8.83,27.47q-8.82,12-24,18.5,18,5,28.39,19.1t10.43,33.56q0,29.85-19.34,46.89t-54.64,17.05Zm29.22-127.11h44.15q19.17,0,30.67-9.6t11.5-26.09q0-18.32-10.66-26.62T1441,140.6h-43.23Zm0,23.45v79.76H1446q20.4,0,32.19-10.58T1490,274.7q0-40-43.54-40Z"/><path class="cls-3" d="M1601.88,116.7l72.46,180.83L1746.8,116.7h37.9V338.33h-29.22V252l2.73-93.16-72.76,179.47h-22.37l-72.61-179,2.89,92.7v86.31h-29.22V116.7Z"/><path class="cls-3" d="M1963,280.33h-92.85l-20.86,58h-30.14l84.64-221.63h25.57l84.79,221.63h-30Zm-84-23.89h75.35l-37.75-103.67Z"/><path class="cls-3" d="M2126.81,248.67h-52.06v89.66h-29.38V116.7h73.38q37.44,0,57.62,17t20.16,49.63q0,20.7-11.17,36.07t-31.13,23l52,94.07v1.83h-31.35Zm-52.06-23.9h44.92q21.75,0,34.63-11.28t12.85-30.2q0-20.58-12.24-31.56T2119.5,140.6h-44.75Z"/><path class="cls-3" d="M2380,140.6h-71.25V338.33h-29.08V140.6h-71.09V116.7H2380Z"/><path class="cls-3" d="M1061.1,632.08q-9.75,13.84-30.52,21.61t-46.51,7.77q-26,0-46.28-12.49t-31.35-35.31q-11.12-22.85-11.26-52.37v-28q0-46.11,23.28-72.83T981,433.73q34.25,0,55.11,17.43t24.8,48h-18.72q-4.12-24.43-19.86-37t-41.18-12.6q-31,0-49.17,22.09T913.9,534v26.2q0,25.29,8.59,44.71T947.15,635q16.07,10.66,36.92,10.67,24.21,0,41.56-7.62,11.26-5,16.75-11.72V569.06H982.86V553.22h78.24Z"/><path class="cls-3" d="M1198.58,566H1134.2v92.4h-18.88V436.78h72q35.46,0,55.4,17.18t20,48a60.08,60.08,0,0,1-12.48,37.56q-12.5,16.26-33.5,22.5l55.41,94.37v2h-19.95Zm-64.38-15.83h57.39q23.58,0,37.89-13.41T1243.8,502q0-23.47-14.92-36.43t-41.87-13H1134.2Z"/><path class="cls-3" d="M1479,559.62q0,30.58-10.58,53.73T1438.22,649q-19.63,12.48-45.36,12.49-38.82,0-62.71-27.79t-23.91-75V535.88q0-30.3,10.73-53.66t30.37-35.93q19.65-12.56,45.21-12.56t45.13,12.33q19.56,12.33,30.22,34.86T1479,533.13Zm-18.72-24q0-40-18.12-62.71t-49.62-22.69q-30.9,0-49.24,22.76T1325,536.48v23.14q0,39.42,18.27,62.49t49.63,23q31.82,0,49.62-22.75t17.81-63.4Z"/><path class="cls-3" d="M1680.43,436.78v151.3q-.15,22.38-9.89,39a64.85,64.85,0,0,1-27.48,25.49q-17.73,8.91-40.72,8.91-35,0-56.09-19.11t-21.84-52.9V436.78H1543V586.72q0,28,16,43.46t43.38,15.45q27.4,0,43.31-15.53t15.9-43.23V436.78Z"/><path class="cls-3" d="M1752.93,568.15v90.26H1734.2V436.78h75.51q34.55,0,54.56,17.66t20,48.55q0,31.2-19.25,48.18t-55.79,17Zm0-15.84h56.78q27.24,0,41.55-13t14.31-36.13q0-23-14.23-36.66t-40.42-13.95h-58Z"/></svg>