<svg width="24" height="24" viewBox="0 0 24 24" fill="none" xmlns="http://www.w3.org/2000/svg">
<path d="M12 3C9.61305 3 7.32387 3.94821 5.63604 5.63604C3.94821 7.32387 3 9.61305 3 12C3 14.3869 3.94821 16.6761 5.63604 18.364C7.32387 20.0518 9.61305 21 12 21C14.3869 21 16.6761 20.0518 18.364 18.364C20.0518 16.6761 21 14.3869 21 12C21 9.61305 20.0518 7.32387 18.364 5.63604C16.6761 3.94821 14.3869 3 12 3V3ZM14.92 15.34C14.92 15.69 15.06 15.97 15.28 16C15.5 16.03 15.75 15.78 15.86 15.4L16.06 15.48C16.4084 15.6662 16.6821 15.9667 16.835 16.3309C16.988 16.6951 17.0109 17.1009 16.9 17.48C16.8265 17.8165 16.645 18.1197 16.3833 18.3436C16.1215 18.5674 15.7938 18.6996 15.45 18.72C14.96 17.51 13.34 18.78 11.89 18.5C11.5885 18.4241 11.31 18.2762 11.0783 18.0689C10.8467 17.8616 10.6688 17.6012 10.56 17.31C11.75 17.2 13.41 15.58 14.92 15.34ZM11 14.27C11.4442 14.2693 11.8731 14.1079 12.2076 13.8157C12.5421 13.5234 12.7596 13.1201 12.82 12.68C13.0321 12.9417 13.1418 13.2716 13.129 13.6082C13.1161 13.9448 12.9814 14.2652 12.75 14.51C12.624 14.6203 12.4758 14.7023 12.3154 14.7504C12.155 14.7985 11.9862 14.8116 11.8203 14.7889C11.6544 14.7661 11.4953 14.708 11.3538 14.6185C11.2123 14.529 11.0916 14.4102 11 14.27ZM14 13.51C14.41 13.9 17 13.45 17.52 14.6C16.57 14.4 14.57 15.21 14.05 13.52L14 13.51ZM12.73 8.45V8.72C12.08 7.95 11.4 7.65 11.12 8.15C10.84 8.65 12.12 9.26 11.88 10.03C11.64 10.8 10.61 10.59 10 11.64C9.39 12.69 9.51 14.06 11.24 15.31C10.6566 15.2453 10.1051 15.011 9.65358 14.6359C9.2021 14.2609 8.87055 13.7616 8.7 13.2C8.3 12 8.61 10.94 7.92 10.74C7 10.46 6 11.71 6 12.8C4.74 11.54 6.05 9.94 4.8 8.62C5.62181 6.87013 7.05748 5.48287 8.83451 4.72155C10.6115 3.96023 12.6062 3.87784 14.44 4.49C13.8953 4.99486 13.4618 5.6078 13.1674 6.28966C12.8729 6.97152 12.724 7.70731 12.73 8.45Z" fill="#1B1B1B"/>
</svg>
