<svg width="16" height="16" viewBox="0 0 16 16" fill="none" xmlns="http://www.w3.org/2000/svg">
<g clip-path="url(#clip0_101_596)">
<path d="M15 8C15 4.134 11.866 1 8 1C4.134 1 1 4.134 1 8C1 11.4938 3.55979 14.3898 6.90625 14.915V10.0234H5.12891V8H6.90625V6.45781C6.90625 4.70344 7.95133 3.73438 9.55025 3.73438C10.3162 3.73438 11.1172 3.87109 11.1172 3.87109V5.59375H10.2345C9.365 5.59375 9.09375 6.13338 9.09375 6.68695V8H11.0352L10.7248 10.0234H9.09375V14.915C12.4402 14.3898 15 11.4938 15 8Z" fill="#191816"/>
</g>
<defs>
<clipPath id="clip0_101_596">
<rect width="14" height="14" fill="white" transform="translate(1 1)"/>
</clipPath>
</defs>
</svg>
