<svg width="20" height="20" viewBox="0 0 20 20" fill="none" xmlns="http://www.w3.org/2000/svg">
<path d="M16.875 2.30762C17.7038 2.30762 18.4987 2.63491 19.0847 3.21749C19.6708 3.80008 20 4.59023 20 5.41413V15.355C20 16.1789 19.6708 16.969 19.0847 17.5516C18.4987 18.1342 17.7038 18.4615 16.875 18.4615H3.125C2.2962 18.4615 1.50134 18.1342 0.915291 17.5516C0.32924 16.969 0 16.1789 0 15.355V5.41413C0 4.59023 0.32924 3.80008 0.915291 3.21749C1.50134 2.63491 2.2962 2.30762 3.125 2.30762H16.875ZM18.75 7.22957L10.3175 12.1627C10.2378 12.2092 10.1487 12.2376 10.0566 12.2458C9.9645 12.2539 9.87175 12.2417 9.785 12.2099L9.6825 12.1627L1.25 7.23206V15.355C1.25 15.8493 1.44754 16.3234 1.79917 16.6729C2.15081 17.0225 2.62772 17.2189 3.125 17.2189H16.875C17.3723 17.2189 17.8492 17.0225 18.2008 16.6729C18.5525 16.3234 18.75 15.8493 18.75 15.355V7.22957ZM16.875 3.55022H3.125C2.62772 3.55022 2.15081 3.7466 1.79917 4.09615C1.44754 4.4457 1.25 4.91979 1.25 5.41413V5.78939L10 10.9064L18.75 5.78691V5.41413C18.75 4.91979 18.5525 4.4457 18.2008 4.09615C17.8492 3.7466 17.3723 3.55022 16.875 3.55022Z" fill="white"/>
</svg>
