<svg width="26" height="26" viewBox="0 0 26 26" fill="none" xmlns="http://www.w3.org/2000/svg">
<g clip-path="url(#clip0_5_8)">
<path d="M1.21853 10.3999H24.7815V8.66661H1.21853V10.3999ZM24.2667 9.88514V10.6461H26V9.88514H24.2667ZM21.4691 24.2666H4.53093V25.9999H21.4691V24.2666ZM1.73333 10.6461V9.88514H0V10.6461H1.73333ZM5.01973 24.5682C2.85844 20.2455 1.73327 15.479 1.73333 10.6461H0C0 15.749 1.18733 20.7809 3.47013 25.3447L5.01973 24.5682ZM4.53093 24.2666C4.73893 24.2666 4.92787 24.3845 5.01973 24.5682L3.47013 25.3447C3.56881 25.5416 3.72028 25.7071 3.90761 25.8228C4.09494 25.9385 4.31075 25.9998 4.53093 25.9999V24.2666ZM20.9803 24.5682C21.0257 24.4775 21.0955 24.4012 21.1818 24.3479C21.2681 24.2947 21.3676 24.2665 21.4691 24.2666V25.9999C21.9197 25.9999 22.3288 25.7469 22.5299 25.3447L20.9803 24.5682ZM24.2667 10.6461C24.2667 15.4786 23.14 20.2453 20.9803 24.5682L22.5299 25.3447C24.812 20.781 26 15.7486 26 10.6461H24.2667ZM24.7815 10.3999C24.6449 10.3999 24.514 10.3457 24.4174 10.2492C24.3209 10.1526 24.2667 10.0217 24.2667 9.88514H26C26 9.56197 25.8716 9.25203 25.6431 9.02351C25.4146 8.79499 25.1046 8.66661 24.7815 8.66661V10.3999ZM1.21853 8.66661C0.895358 8.66661 0.585419 8.79499 0.3569 9.02351C0.128381 9.25203 0 9.56197 0 9.88514H1.73333C1.73333 10.0217 1.6791 10.1526 1.58255 10.2492C1.48601 10.3457 1.35507 10.3999 1.21853 10.3999V8.66661ZM6.06669 9.53381C6.4775 9.77963 7.00978 9.64622 7.25609 9.2357L11.5634 2.0569C11.8101 1.64569 11.6764 1.11231 11.2649 0.866075C10.8541 0.62026 10.3218 0.753669 10.0755 1.16418L5.76823 8.34299C5.5215 8.7542 5.65519 9.28758 6.06669 9.53381ZM14.7338 0.866304C14.323 1.11245 14.1896 1.64517 14.436 2.05588L18.7441 9.23596C18.9902 9.64627 19.5223 9.77949 19.9328 9.53358C20.3437 9.28744 20.4771 8.75471 20.2306 8.34401L15.9226 1.16393C15.6764 0.753615 15.1443 0.620399 14.7338 0.866304Z" fill="white"/>
</g>
<defs>
<clipPath id="clip0_5_8">
<rect width="26" height="26" fill="white"/>
</clipPath>
</defs>
</svg>
