<svg width="26" height="26" viewBox="0 0 26 26" fill="none" xmlns="http://www.w3.org/2000/svg">
<g clip-path="url(#clip0_7_93)">
<path d="M11 1C9.02219 1 7.08879 1.58649 5.4443 2.6853C3.79981 3.78412 2.51809 5.3459 1.76121 7.17316C1.00433 9.00042 0.8063 11.0111 1.19215 12.9509C1.578 14.8907 2.53041 16.6725 3.92894 18.0711C5.32746 19.4696 7.10929 20.422 9.0491 20.8078C10.9889 21.1937 12.9996 20.9957 14.8268 20.2388C16.6541 19.4819 18.2159 18.2002 19.3147 16.5557C20.4135 14.9112 21 12.9778 21 11C20.9998 8.34788 19.9462 5.80444 18.0709 3.92912C16.1956 2.05379 13.6521 1.00017 11 1Z" stroke="white" stroke-width="1.75" stroke-miterlimit="10"/>
<path d="M18 18L25 25" stroke="white" stroke-width="1.75" stroke-miterlimit="10" stroke-linecap="round"/>
</g>
<defs>
<clipPath id="clip0_7_93">
<rect width="26" height="26" fill="white"/>
</clipPath>
</defs>
</svg>
