<svg width="20" height="20" viewBox="0 0 20 20" fill="none" xmlns="http://www.w3.org/2000/svg">
<path d="M6.15007 17.5083C6.55841 17.9166 7.21674 17.9166 7.62507 17.5083L14.5501 10.5833C14.6273 10.5062 14.6886 10.4146 14.7304 10.3138C14.7723 10.213 14.7938 10.105 14.7938 9.99581C14.7938 9.88667 14.7723 9.7786 14.7304 9.67779C14.6886 9.57698 14.6273 9.48541 14.5501 9.40831L7.62507 2.48331C7.21674 2.07498 6.55841 2.07498 6.15007 2.48331C5.74174 2.89165 5.74174 3.54998 6.15007 3.95831L12.1834 9.99998L6.14174 16.0416C5.74174 16.4416 5.74174 17.1083 6.15007 17.5083Z" fill="white"/>
</svg>
