<svg width="15" height="15" viewBox="0 0 15 15" fill="none" xmlns="http://www.w3.org/2000/svg">
<path d="M8.28364 6.33436C8.49177 6.09933 8.66239 5.86243 8.87614 5.66126C9.53239 5.0408 10.3086 4.7287 11.2161 4.73622C11.7149 4.73998 12.2061 4.7757 12.6861 4.91483C13.7849 5.23258 14.4224 5.99217 14.728 7.06762C14.9567 7.87421 14.998 8.70336 14.9999 9.53439C15.0036 11.2867 14.9942 13.0409 14.9999 14.7932C14.9999 14.9568 14.9549 15 14.7936 15C13.8936 14.9925 12.9917 14.9925 12.0918 15C11.9324 15 11.8986 14.953 11.8986 14.8026C11.9043 13.1349 11.9043 11.4672 11.8986 9.79762C11.8986 9.38022 11.8705 8.96094 11.7543 8.55483C11.5386 7.80652 11.0043 7.42485 10.2224 7.46621C9.15364 7.52262 8.59864 8.05283 8.46364 9.14144C8.43177 9.4009 8.41489 9.66225 8.41677 9.92359C8.41677 11.5462 8.41677 13.1688 8.42052 14.7913C8.42052 14.953 8.38114 15 8.21614 15C7.30865 14.9925 6.40115 14.9925 5.49365 15C5.3474 15 5.30615 14.9624 5.30615 14.8139C5.3099 11.6026 5.3099 8.38937 5.30615 5.17806C5.30615 5.01824 5.35865 4.98252 5.50865 4.98252C6.36927 4.98816 7.23177 4.99004 8.09239 4.98252C8.25177 4.98252 8.29114 5.03328 8.28927 5.1837C8.27989 5.56725 8.28552 5.9508 8.28552 6.33624L8.28364 6.33436Z" fill="#191816"/>
<path d="M3.34877 10.0045C3.34877 11.5932 3.3469 13.182 3.35252 14.7707C3.35252 14.9475 3.3094 15.0001 3.12752 14.9982C2.22753 14.9888 1.32753 14.9907 0.425659 14.9982C0.281284 14.9982 0.238159 14.9625 0.238159 14.814C0.241909 11.597 0.241909 8.38005 0.238159 5.16121C0.238159 5.02772 0.270034 4.98071 0.410659 4.98071C1.32378 4.98635 2.2369 4.98823 3.15002 4.98071C3.32627 4.98071 3.34877 5.04652 3.34877 5.19881C3.34502 6.80071 3.3469 8.40261 3.3469 10.0045H3.34877Z" fill="#191816"/>
<path d="M3.59625 1.79368C3.59625 2.79204 2.79 3.60427 1.79626 3.60427C0.81751 3.60615 0.0037629 2.79204 1.29091e-05 1.8106C-0.00373708 0.815991 0.81001 0 1.80188 0C2.78625 0 3.59625 0.81035 3.59813 1.79368H3.59625Z" fill="#191816"/>
</svg>
